<?xml version="1.0" standalone="no"?>
<!DOCTYPE svg PUBLIC "-//W3C//DTD SVG 20010904//EN"
 "http://www.w3.org/TR/2001/REC-SVG-20010904/DTD/svg10.dtd">
<svg version="1.0" xmlns="http://www.w3.org/2000/svg"
 width="1200.000000pt" height="1200.000000pt" viewBox="0 0 1200.000000 1200.000000"
 preserveAspectRatio="xMidYMid meet">
<metadata>
Created by potrace 1.14, written by Peter Selinger 2001-2017
</metadata>
<g transform="translate(0.000000,1200.000000) scale(0.100000,-0.100000)"
fill="#000000" stroke="none">
<path d="M0 6000 l0 -6000 6000 0 6000 0 0 6000 0 6000 -6000 0 -6000 0 0
-6000z m1324 2185 c439 -66 702 -368 732 -842 l7 -102 48 43 c26 23 78 59 116
78 131 68 237 90 433 89 186 0 291 -20 451 -86 14 -5 15 0 7 51 -15 95 -39
127 -123 166 -48 22 -63 23 -337 26 l-288 3 0 265 0 264 323 0 c342 0 455 -10
592 -51 158 -47 302 -153 363 -266 37 -70 68 -187 82 -308 5 -51 10 -361 10
-718 l0 -627 -287 2 -287 3 -11 42 c-5 23 -13 45 -17 49 -5 4 -8 18 -8 31 0
13 -5 23 -12 23 -6 0 -25 11 -42 24 -52 39 -89 54 -150 59 -89 8 -152 -19
-213 -90 -43 -51 -48 -62 -53 -117 l-5 -61 -47 -3 c-43 -3 -50 0 -100 44 -29
26 -174 168 -322 316 l-269 269 6 104 6 105 -551 0 -550 0 7 -27 c15 -64 58
-137 109 -189 91 -90 196 -125 379 -126 108 -1 117 -4 117 -49 0 -42 51 -109
160 -209 111 -102 180 -171 180 -181 0 -11 -173 -48 -279 -60 -64 -7 -179 -9
-300 -6 -238 6 -348 30 -507 107 -347 168 -524 485 -524 934 0 329 83 563 269
760 207 218 532 314 885 261z m3621 -14 c107 -19 305 -64 342 -78 11 -4 11 0
3 21 l-10 26 317 -2 316 -3 166 -537 c91 -296 168 -534 172 -530 4 4 88 245
188 536 100 291 183 531 185 533 1 2 135 2 297 1 l295 -3 -254 -735 c-140
-404 -291 -843 -337 -975 -45 -132 -94 -273 -108 -313 -15 -39 -23 -72 -19
-72 4 0 32 7 62 15 81 22 249 19 344 -5 130 -33 201 -73 291 -164 126 -126
198 -293 211 -485 3 -47 7 -91 9 -97 2 -7 28 12 58 41 110 107 261 152 477
142 126 -6 201 -21 286 -57 l47 -21 -6 52 c-9 72 -34 110 -92 139 -48 24 -58
25 -272 28 l-223 4 0 200 0 200 283 -5 c315 -5 383 -15 502 -71 94 -44 167
-112 205 -189 60 -122 62 -150 67 -734 l5 -533 -236 0 -236 0 0 60 c0 33 -2
60 -5 60 -3 0 -29 -17 -58 -39 -107 -80 -202 -111 -337 -111 -267 1 -445 115
-520 334 l-16 49 -39 -69 c-52 -93 -160 -199 -251 -247 -222 -115 -528 -98
-711 39 -17 13 -34 24 -37 24 -3 0 -6 -164 -6 -365 l0 -365 -235 0 -235 0 0
726 c0 658 -1 726 -16 720 -9 -3 -29 -6 -45 -6 l-29 0 0 -400 0 -400 -235 0
-235 0 0 498 0 498 -27 54 c-38 74 -80 95 -188 94 -95 0 -163 -24 -249 -85
l-56 -40 0 -510 0 -509 -230 0 -229 0 -3 503 -3 502 -25 45 c-32 57 -77 87
-145 95 -96 12 -195 -16 -291 -83 l-54 -37 0 -512 0 -513 -235 0 -235 0 0 765
0 765 235 0 234 0 3 -59 3 -59 73 48 c110 72 191 95 337 95 132 -1 213 -17
304 -62 54 -26 133 -95 163 -143 l15 -24 61 54 c77 71 169 125 257 153 57 18
92 22 190 21 196 -1 319 -47 421 -156 l54 -59 58 16 c31 9 72 26 89 38 30 20
33 26 33 75 l0 52 34 0 c33 0 35 3 61 68 l27 68 -90 264 c-50 146 -186 549
-303 895 l-214 630 -5 -202 -5 -201 -60 25 c-198 84 -601 137 -767 102 -89
-19 -131 -82 -92 -137 22 -32 39 -37 300 -92 127 -27 266 -60 310 -75 225 -75
347 -201 389 -401 19 -88 19 -269 0 -357 -50 -236 -212 -388 -495 -465 -90
-25 -107 -26 -350 -26 -202 -1 -275 3 -350 17 -117 21 -268 67 -377 114 l-83
35 0 269 c0 148 2 269 4 269 1 0 50 -22 107 -49 196 -92 368 -135 594 -150
251 -16 345 18 345 125 0 54 -28 88 -88 108 -26 9 -137 34 -247 56 -311 64
-428 109 -538 210 -59 54 -105 132 -133 225 -25 82 -25 293 -1 385 70 262 266
407 607 449 119 15 398 6 535 -18z m-3194 -1375 c19 -8 102 -80 184 -161 146
-142 665 -647 712 -692 13 -13 27 -23 31 -23 5 0 14 35 21 78 12 77 23 130 43
210 19 75 107 131 193 123 44 -4 110 -46 135 -86 16 -26 21 -47 19 -87 -8
-165 -2 -305 15 -363 19 -61 44 -115 59 -126 5 -3 9 -10 9 -15 0 -5 5 -20 10
-34 39 -101 50 -241 28 -335 -7 -28 -28 -83 -48 -123 -36 -73 -78 -119 -290
-319 -113 -107 -132 -123 -142 -123 -6 0 -10 -4 -10 -10 0 -5 -7 -10 -15 -10
-8 0 -15 -4 -15 -8 0 -10 -65 -42 -85 -42 -8 0 -15 -4 -15 -9 0 -34 -296 -53
-395 -26 -76 22 -148 56 -204 97 -75 56 -398 377 -415 412 -33 71 -12 144 62
209 26 23 120 34 153 17 17 -9 14 -3 -12 22 -52 47 -72 93 -72 159 1 68 15 97
68 139 38 31 43 32 107 27 l68 -4 -39 37 c-68 66 -67 163 2 227 40 37 44 38
113 38 l71 0 -121 118 c-67 64 -171 167 -233 227 -61 61 -116 110 -122 110 -6
0 -11 4 -11 10 0 5 -15 24 -33 42 -81 80 -87 174 -18 256 39 45 131 64 192 38z
m-296 -754 c39 -12 83 -26 98 -31 l27 -11 0 -209 0 -209 -73 28 c-40 16 -103
34 -141 41 -91 15 -279 7 -329 -15 -57 -25 -122 -90 -146 -145 -47 -110 -51
-284 -10 -417 16 -52 31 -77 72 -119 62 -64 122 -85 236 -85 100 0 185 21 288
71 46 23 85 40 87 38 2 -2 31 -87 65 -188 48 -144 59 -186 49 -194 -39 -27
-173 -82 -257 -105 -86 -23 -115 -26 -271 -26 -201 -1 -263 11 -395 74 -137
66 -227 156 -296 295 -58 118 -80 214 -86 385 -10 286 53 490 201 649 77 83
235 161 381 190 28 6 136 8 240 7 156 -3 203 -7 260 -24z m8500 3 c197 -51
313 -170 366 -376 21 -80 22 -109 26 -621 l5 -538 -236 0 -236 0 0 486 c0 350
-3 498 -12 527 -18 60 -64 102 -133 122 -110 32 -239 6 -364 -75 l-61 -40 0
-510 0 -510 -235 0 -235 0 0 765 0 765 235 0 235 0 0 -60 c0 -33 3 -60 6 -60
3 0 20 11 37 24 69 52 200 105 292 120 56 8 250 -3 310 -19z m934 -323 c155
-502 172 -555 181 -546 4 5 72 199 151 431 l144 423 223 0 c122 0 222 -2 222
-5 0 -25 -632 -1838 -660 -1895 -97 -194 -215 -275 -437 -301 -97 -12 -238 -2
-315 23 l-38 11 0 198 0 197 38 -11 c20 -6 80 -11 132 -11 163 -1 233 48 290
201 l19 52 -253 753 c-140 414 -257 761 -261 771 -7 16 8 17 231 17 l239 0 94
-308z"/>
<path d="M1045 7681 c-45 -12 -107 -46 -132 -73 -23 -25 -67 -115 -78 -160
l-7 -28 296 0 297 0 -7 38 c-16 93 -66 167 -139 204 -43 22 -176 34 -230 19z"/>
<path d="M2711 7168 c-5 -13 -7 -27 -4 -31 3 -4 0 -14 -6 -21 -6 -7 -12 -21
-14 -32 -2 -10 -7 -26 -10 -34 -9 -24 -27 -85 -31 -106 -3 -10 -16 -56 -31
-102 -14 -46 -25 -90 -23 -99 3 -14 130 -63 163 -63 6 0 25 46 42 103 46 148
103 345 103 357 0 5 -13 10 -29 10 -17 0 -33 5 -36 10 -3 6 -17 10 -30 10 -13
0 -27 5 -30 10 -12 19 -55 11 -64 -12z"/>
<path d="M2271 7114 c-13 -7 -28 -20 -33 -29 -6 -10 -16 -14 -30 -9 -15 4 -18
3 -13 -6 5 -9 4 -11 -4 -6 -15 10 -37 -14 -35 -39 1 -31 15 -65 26 -65 5 0 6
-5 2 -11 -3 -6 -3 -14 2 -18 5 -3 18 -24 29 -46 11 -22 22 -42 25 -45 15 -14
40 -61 40 -75 0 -8 5 -15 10 -15 6 0 9 -3 8 -7 -4 -11 43 -85 62 -100 12 -9
17 -8 23 3 4 8 14 14 21 14 8 0 16 7 20 15 3 8 14 15 25 15 11 0 23 5 26 10 3
6 15 10 26 10 13 0 19 7 19 24 0 13 -5 26 -10 28 -6 2 -12 13 -13 26 0 12 -4
22 -8 22 -4 0 -14 12 -22 28 -8 15 -33 61 -55 103 -22 42 -38 80 -35 83 4 3 2
6 -4 6 -10 0 -33 39 -43 74 -7 23 -27 27 -59 10z"/>
<path d="M3180 6830 c0 -5 -6 -7 -14 -4 -8 3 -33 -8 -55 -24 -28 -20 -48 -28
-63 -24 -14 3 -19 1 -14 -6 4 -7 1 -12 -8 -12 -8 0 -22 -10 -30 -22 -9 -12
-16 -19 -16 -14 0 5 -7 3 -15 -4 -8 -7 -15 -9 -15 -5 0 4 -7 1 -16 -6 -9 -7
-23 -14 -32 -16 -9 -1 -18 -7 -20 -13 -2 -5 -7 -8 -11 -6 -4 3 -20 -6 -36 -20
l-29 -25 22 -15 c12 -8 20 -20 17 -25 -4 -5 -2 -9 2 -9 11 0 47 -81 44 -97 -1
-7 2 -13 8 -13 9 0 92 41 101 50 3 3 28 16 55 30 28 13 67 35 88 47 20 13 37
19 37 13 0 -14 47 11 88 47 30 26 32 31 18 42 -9 8 -16 19 -16 25 -1 23 -37
86 -45 79 -4 -5 -6 0 -2 9 3 10 0 19 -9 22 -23 9 -34 7 -34 -4z"/>
<path d="M6465 5639 c-33 -12 -84 -35 -112 -52 l-53 -32 0 -288 0 -287 47 -30
c92 -58 148 -74 263 -75 98 0 108 2 159 30 106 58 151 151 159 326 10 225 -56
364 -197 414 -64 22 -192 19 -266 -6z"/>
<path d="M7913 5147 c-42 -16 -81 -51 -94 -85 -15 -38 -13 -126 3 -159 53
-110 256 -102 416 16 l43 32 -3 77 -3 77 -70 24 c-83 29 -240 38 -292 18z"/>
</g>
</svg>
