<?xml version="1.0" encoding="UTF-8" standalone="no"?>
<svg
   xmlns:dc="http://purl.org/dc/elements/1.1/"
   xmlns:cc="http://creativecommons.org/ns#"
   xmlns:rdf="http://www.w3.org/1999/02/22-rdf-syntax-ns#"
   xmlns:svg="http://www.w3.org/2000/svg"
   xmlns="http://www.w3.org/2000/svg"
   width="24"
   height="24"
   viewBox="0 0 24 24"
   version="1.1"
   id="svg8">
  <defs
     id="defs2">
    <rect
       x="-1.1008456"
       y="289.81766"
       width="7.9207187"
       height="7.0346723"
       id="rect2504" />
  </defs>
  <metadata
     id="metadata5">
    <rdf:RDF>
      <cc:Work
         rdf:about="">
        <dc:format>image/svg+xml</dc:format>
        <dc:type
           rdf:resource="http://purl.org/dc/dcmitype/StillImage" />
      </cc:Work>
    </rdf:RDF>
  </metadata>
  <g
     id="g3143"
     style="display:inline">
    <path
       id="rect3071"
       style="color:#000000;font-style:normal;font-variant:normal;font-weight:normal;font-stretch:normal;font-size:medium;line-height:normal;font-family:sans-serif;font-variant-ligatures:normal;font-variant-position:normal;font-variant-caps:normal;font-variant-numeric:normal;font-variant-alternates:normal;font-variant-east-asian:normal;font-feature-settings:normal;font-variation-settings:normal;text-indent:0;text-align:start;text-decoration:none;text-decoration-line:none;text-decoration-style:solid;text-decoration-color:#000000;letter-spacing:normal;word-spacing:normal;text-transform:none;writing-mode:lr-tb;direction:ltr;text-orientation:mixed;dominant-baseline:auto;baseline-shift:baseline;text-anchor:start;white-space:normal;shape-padding:0;shape-margin:0;inline-size:0;clip-rule:nonzero;display:inline;overflow:visible;visibility:visible;opacity:1;isolation:auto;mix-blend-mode:normal;color-interpolation:sRGB;color-interpolation-filters:linearRGB;solid-color:#000000;solid-opacity:1;vector-effect:none;fill:#000000;fill-opacity:1;fill-rule:nonzero;stroke:none;stroke-linecap:butt;stroke-linejoin:miter;stroke-miterlimit:4;stroke-dasharray:none;stroke-dashoffset:0;stroke-opacity:1;paint-order:fill markers stroke;color-rendering:auto;image-rendering:auto;shape-rendering:auto;text-rendering:auto;enable-background:accumulate;stop-color:#000000;stop-opacity:1"
       d="M 1.4511719,3 V 21 H 22.548828 V 3 Z m 1,1 H 15.5 V 7.257812 H 2.4511719 Z M 16.5,4 h 5.048828 V 7.257812 H 16.5 Z m 1.757812,6.054688 c 0.840553,0 1.533204,0.689384 1.533204,1.52539 0,0.836006 -0.692653,1.525391 -1.533204,1.525391 -0.242358,0 -0.469256,-0.06243 -0.673828,-0.164063 -0.640795,0.592968 -1.282906,1.184513 -1.923828,1.777344 0.09179,0.195136 0.146485,0.410762 0.146485,0.638672 0,0.836007 -0.692654,1.523437 -1.533203,1.523437 -0.840551,0 -1.533204,-0.68743 -1.533204,-1.523437 0,-0.08921 0.01221,-0.176499 0.02734,-0.261719 -0.702535,-0.39558 -1.406172,-0.789201 -2.109375,-1.183594 -0.272768,0.247306 -0.630805,0.404297 -1.0253865,0.404297 -0.2657591,0 -0.5133624,-0.07486 -0.7324219,-0.195312 -0.5902883,0.55751 -1.1811454,1.114418 -1.7714844,1.671875 0.091126,0.194357 0.1464844,0.407737 0.1464844,0.634765 0,0.836006 -0.692654,1.525391 -1.5332031,1.525391 -0.8405492,0 -1.5332031,-0.689385 -1.5332031,-1.525391 0,-0.836005 0.6926539,-1.523437 1.5332031,-1.523437 0.2480618,0 0.4793457,0.06594 0.6875,0.171875 0.5982046,-0.562567 1.1953814,-1.126228 1.7929687,-1.689453 -0.079221,-0.183117 -0.1230468,-0.38321 -0.1230468,-0.59375 0,-0.836006 0.6926542,-1.525391 1.5332031,-1.525391 0.8405495,0 1.5312495,0.689385 1.5312495,1.525391 0,0.08375 -0.01206,0.16391 -0.02539,0.24414 0.707571,0.395521 1.414066,0.792962 2.121094,1.189453 0.27184,-0.241715 0.624511,-0.394531 1.013672,-0.394531 0.24745,0 0.479725,0.06621 0.6875,0.171875 0.639785,-0.592 1.280165,-1.183358 1.919921,-1.77539 -0.09549,-0.198326 -0.154297,-0.415688 -0.154297,-0.648438 0,-0.836006 0.690699,-1.52539 1.53125,-1.52539 z m -3.984374,4.77539 c -0.298644,0 -0.529297,0.230316 -0.529297,0.527344 0,0.297028 0.230653,0.52539 0.529297,0.52539 0.298642,0 0.529296,-0.228362 0.529296,-0.52539 0,-0.297028 -0.230654,-0.527344 -0.529296,-0.527344 z m -8.5312505,1.070313 c -0.2986427,0 -0.53125,0.230315 -0.53125,0.527343 0,0.297029 0.2326073,0.529297 0.53125,0.529297 0.2986426,0 0.5292969,-0.232268 0.5292969,-0.529297 0,-0.297028 -0.2306543,-0.527343 -0.5292969,-0.527343 z" />
    <path
       id="path3075"
       style="color:#000000;font-style:normal;font-variant:normal;font-weight:normal;font-stretch:normal;font-size:medium;line-height:normal;font-family:sans-serif;font-variant-ligatures:normal;font-variant-position:normal;font-variant-caps:normal;font-variant-numeric:normal;font-variant-alternates:normal;font-variant-east-asian:normal;font-feature-settings:normal;font-variation-settings:normal;text-indent:0;text-align:start;text-decoration:none;text-decoration-line:none;text-decoration-style:solid;text-decoration-color:#000000;letter-spacing:normal;word-spacing:normal;text-transform:none;writing-mode:lr-tb;direction:ltr;text-orientation:mixed;dominant-baseline:auto;baseline-shift:baseline;text-anchor:start;white-space:normal;shape-padding:0;shape-margin:0;inline-size:0;clip-rule:nonzero;display:inline;overflow:visible;visibility:visible;isolation:auto;mix-blend-mode:normal;color-interpolation:sRGB;color-interpolation-filters:linearRGB;solid-color:#000000;solid-opacity:1;vector-effect:none;fill:#000000;fill-opacity:1;fill-rule:nonzero;stroke:none;stroke-linecap:square;stroke-linejoin:miter;stroke-miterlimit:4;stroke-dasharray:none;stroke-dashoffset:0;stroke-opacity:1;color-rendering:auto;image-rendering:auto;shape-rendering:auto;text-rendering:auto;enable-background:accumulate;stop-color:#000000"
       d="m 7.066407,5.132811 c 0,0.333333 0,0.666667 0,1 0.666667,0 1.333333,0 2,0 0,-0.333333 0,-0.666667 0,-1 -0.666667,0 -1.333333,0 -2,0 z" />
    <path
       id="path3077"
       style="color:#000000;font-style:normal;font-variant:normal;font-weight:normal;font-stretch:normal;font-size:medium;line-height:normal;font-family:sans-serif;font-variant-ligatures:normal;font-variant-position:normal;font-variant-caps:normal;font-variant-numeric:normal;font-variant-alternates:normal;font-variant-east-asian:normal;font-feature-settings:normal;font-variation-settings:normal;text-indent:0;text-align:start;text-decoration:none;text-decoration-line:none;text-decoration-style:solid;text-decoration-color:#000000;letter-spacing:normal;word-spacing:normal;text-transform:none;writing-mode:lr-tb;direction:ltr;text-orientation:mixed;dominant-baseline:auto;baseline-shift:baseline;text-anchor:start;white-space:normal;shape-padding:0;shape-margin:0;inline-size:0;clip-rule:nonzero;display:inline;overflow:visible;visibility:visible;isolation:auto;mix-blend-mode:normal;color-interpolation:sRGB;color-interpolation-filters:linearRGB;solid-color:#000000;solid-opacity:1;vector-effect:none;fill:#000000;fill-opacity:1;fill-rule:nonzero;stroke:none;stroke-linecap:square;stroke-linejoin:miter;stroke-miterlimit:4;stroke-dasharray:none;stroke-dashoffset:0;stroke-opacity:1;color-rendering:auto;image-rendering:auto;shape-rendering:auto;text-rendering:auto;enable-background:accumulate;stop-color:#000000"
       d="m 3.632813,5.132811 c 0,0.333333 0,0.666667 0,1 0.666667,0 1.333333,0 2,0 0,-0.333333 0,-0.666667 0,-1 -0.666667,0 -1.333333,0 -2,0 z" />
    <path
       id="path3079"
       style="color:#000000;font-style:normal;font-variant:normal;font-weight:normal;font-stretch:normal;font-size:medium;line-height:normal;font-family:sans-serif;font-variant-ligatures:normal;font-variant-position:normal;font-variant-caps:normal;font-variant-numeric:normal;font-variant-alternates:normal;font-variant-east-asian:normal;font-feature-settings:normal;font-variation-settings:normal;text-indent:0;text-align:start;text-decoration:none;text-decoration-line:none;text-decoration-style:solid;text-decoration-color:#000000;letter-spacing:normal;word-spacing:normal;text-transform:none;writing-mode:lr-tb;direction:ltr;text-orientation:mixed;dominant-baseline:auto;baseline-shift:baseline;text-anchor:start;white-space:normal;shape-padding:0;shape-margin:0;inline-size:0;clip-rule:nonzero;display:inline;overflow:visible;visibility:visible;isolation:auto;mix-blend-mode:normal;color-interpolation:sRGB;color-interpolation-filters:linearRGB;solid-color:#000000;solid-opacity:1;vector-effect:none;fill:#000000;fill-opacity:1;fill-rule:nonzero;stroke:none;stroke-linecap:square;stroke-linejoin:miter;stroke-miterlimit:4;stroke-dasharray:none;stroke-dashoffset:0;stroke-opacity:1;color-rendering:auto;image-rendering:auto;shape-rendering:auto;text-rendering:auto;enable-background:accumulate;stop-color:#000000"
       d="m 10.500001,5.132811 c 0,0.333333 0,0.666667 0,1 0.666667,0 1.333333,0 2,0 0,-0.333333 0,-0.666667 0,-1 -0.666667,0 -1.333333,0 -2,0 z" />
    <g
       id="g3125">
      <g
         id="g3109"
         transform="matrix(0.92391284,0,0,0.91891892,0.30361532,1.1354779)"
         style="stroke-width:1.08529" />
    </g>
  </g>
</svg>
