<?xml version="1.0" encoding="UTF-8" standalone="no"?>
<svg
   width="72"
   height="72"
   version="1.1"
   id="svg15"
   sodipodi:docname="icon-personal.svg"
   inkscape:version="1.1 (c68e22c387, 2021-05-23)"
   xmlns:inkscape="http://www.inkscape.org/namespaces/inkscape"
   xmlns:sodipodi="http://sodipodi.sourceforge.net/DTD/sodipodi-0.dtd"
   xmlns:xlink="http://www.w3.org/1999/xlink"
   xmlns="http://www.w3.org/2000/svg"
   xmlns:svg="http://www.w3.org/2000/svg">
  <sodipodi:namedview
     id="namedview17"
     pagecolor="#505050"
     bordercolor="#eeeeee"
     borderopacity="1"
     inkscape:pageshadow="0"
     inkscape:pageopacity="0"
     inkscape:pagecheckerboard="0"
     showgrid="false"
     inkscape:zoom="7.7777778"
     inkscape:cx="36.707143"
     inkscape:cy="36.064286"
     inkscape:window-width="1366"
     inkscape:window-height="745"
     inkscape:window-x="-8"
     inkscape:window-y="-8"
     inkscape:window-maximized="1"
     inkscape:current-layer="g13" />
  <defs
     id="defs7">
    <linearGradient
       id="a"
       x1="0%"
       x2="99.58%"
       y1="0%"
       y2="99.58%">
      <stop
         offset="0%"
         stop-color="#33D35E"
         id="stop2" />
      <stop
         offset="100%"
         stop-color="#2AB6D9"
         id="stop4" />
    </linearGradient>
    <linearGradient
       inkscape:collect="always"
       xlink:href="#azul"
       id="linearGradient986"
       x1="-5.2714286"
       y1="69.685715"
       x2="3.5287201e-06"
       y2="66.728569"
       gradientUnits="userSpaceOnUse" />
    <linearGradient
       inkscape:collect="always"
       id="azul">
      <stop
         style="stop-color:#5bbffb;stop-opacity:1;"
         offset="0"
         id="stop980" />
      <stop
         style="stop-color:#2e56a6;stop-opacity:1"
         offset="1"
         id="stop982" />
    </linearGradient>
  </defs>
  <g
     fill="none"
     fill-rule="evenodd"
     id="g13">
    <circle
       cx="36"
       cy="36"
       fill="url(#a)"
       id="circle9"
       style="mix-blend-mode:normal;fill:url(#linearGradient986);fill-opacity:1;paint-order:stroke fill markers"
       r="36" />
    <path
       fill="#ffffff"
       fill-rule="nonzero"
       d="m 36.128571,14.457143 a 4.522,4.522 0 0 1 4.516,4.516 4.514,4.514 0 0 1 -1.951,3.713 c 2.647,1.031 4.532,3.601 4.532,6.61 v 3.226 h -6.452 v 0.645 c 0,0.356 0.29,0.645 0.645,0.645 h 1.29 c 1.068,0 1.936,0.868 1.936,1.935 v 1.29 a 1.938,1.938 0 0 1 -1.935,1.936 h -1.153 l 0.69,0.69 -0.964,1.59 c 0.047,0.1 0.081,0.2 0.124,0.3 h 6.287 a 5.146,5.146 0 0 1 -1.759,-3.87 5.167,5.167 0 0 1 5.162,-5.161 5.167,5.167 0 0 1 5.161,5.16 5.154,5.154 0 0 1 -1.904,4 c 3.283,0.621 5.775,3.507 5.775,6.969 v 5.806 h -14.839 v -7.42 a 0.969,0.969 0 0 0 -0.967,-0.967 h -0.968 v 1.15 l -1.802,0.443 c -0.08,0.215 -0.17,0.43 -0.269,0.642 l 0.963,1.59 -3.453,3.454 -1.59,-0.963 c -0.214,0.1 -0.428,0.19 -0.642,0.268 l -0.443,1.803 h -4.883 l -0.442,-1.802 a 8.519,8.519 0 0 1 -0.642,-0.268 l -1.59,0.962 -3.454,-3.453 0.963,-1.59 a 8.632,8.632 0 0 1 -0.268,-0.642 l -1.803,-0.443 v -4.884 l 1.803,-0.443 c 0.079,-0.214 0.169,-0.428 0.268,-0.642 l -0.963,-1.59 0.69,-0.69 h -1.153 a 1.938,1.938 0 0 1 -1.935,-1.935 v -1.29 c 0,-1.068 0.868,-1.936 1.935,-1.936 h 1.29 a 0.645,0.645 0 0 0 0.646,-0.645 v -0.645 h -6.452 v -3.226 c 0,-3.009 1.885,-5.579 4.532,-6.61 a 4.514,4.514 0 0 1 -1.951,-3.713 4.522,4.522 0 0 1 4.516,-4.515 4.522,4.522 0 0 1 4.516,4.516 4.514,4.514 0 0 1 -1.952,3.713 7.126,7.126 0 0 1 3.887,3.67 7.128,7.128 0 0 1 3.887,-3.67 4.514,4.514 0 0 1 -1.951,-3.713 4.522,4.522 0 0 1 4.516,-4.516 z m 12.903,28.387 h -17.097 a 0.969,0.969 0 0 0 0,1.936 h 8.388 a 2.26,2.26 0 0 1 2.258,2.258 v 6.129 h 9.032 v -7.097 h 1.29 v 7.097 h 1.936 v -4.516 a 5.813,5.813 0 0 0 -5.807,-5.807 z m -17.925,-6.452 h -2.86 l -0.37,1.514 -0.347,0.11 a 7.029,7.029 0 0 0 -1.113,0.465 l -0.32,0.167 -1.339,-0.81 -2.021,2.022 0.81,1.338 -0.168,0.32 a 7.08,7.08 0 0 0 -0.465,1.114 l -0.11,0.346 -1.514,0.372 v 2.86 l 1.514,0.37 0.109,0.347 c 0.117,0.368 0.273,0.743 0.466,1.113 l 0.167,0.32 -0.81,1.339 2.021,2.021 1.338,-0.81 0.322,0.168 c 0.37,0.192 0.744,0.349 1.114,0.466 l 0.344,0.11 0.373,1.513 h 2.86 l 0.37,-1.514 0.346,-0.109 a 7.029,7.029 0 0 0 1.113,-0.466 l 0.322,-0.167 1.338,0.81 2.021,-2.021 -0.81,-1.338 0.167,-0.322 c 0.193,-0.37 0.35,-0.744 0.467,-1.114 l 0.11,-0.344 1.512,-0.373 v -0.14 h -2.725 a 5.813,5.813 0 0 1 -5.662,4.517 5.813,5.813 0 0 1 -5.806,-5.806 5.813,5.813 0 0 1 5.806,-5.807 c 1.936,0 3.74,0.985 4.813,2.581 h 1.503 l -0.017,-0.034 -0.167,-0.322 0.81,-1.338 -2.022,-2.021 -1.338,0.81 -0.321,-0.167 a 7.08,7.08 0 0 0 -1.113,-0.466 l -0.346,-0.11 z m -1.43,3.871 a 4.522,4.522 0 0 0 -4.516,4.517 4.522,4.522 0 0 0 4.516,4.516 4.521,4.521 0 0 0 4.327,-3.226 h -1.371 a 3.225,3.225 0 1 1 -1.71,-4.265 2.234,2.234 0 0 1 1.012,-0.251 h 0.898 a 4.533,4.533 0 0 0 -3.156,-1.29 z m 0,2.581 a 1.938,1.938 0 0 0 -1.935,1.936 c 0,1.067 0.868,1.935 1.935,1.935 0.623,0 1.184,-0.3 1.542,-0.773 a 2.253,2.253 0 0 1 -1.542,-2.13 c 0,-0.337 0.08,-0.653 0.212,-0.94 -0.071,-0.009 -0.14,-0.028 -0.212,-0.028 z m 17.42,-9.032 a 3.875,3.875 0 0 0 -3.871,3.87 3.875,3.875 0 0 0 3.87,3.872 3.875,3.875 0 0 0 3.872,-3.871 3.875,3.875 0 0 0 -3.871,-3.871 z m -11.613,-1.29 h -11.613 v 0.645 a 1.938,1.938 0 0 1 -1.936,1.935 h -1.29 a 0.645,0.645 0 0 0 -0.645,0.645 v 1.29 c 0,0.357 0.289,0.646 0.645,0.646 h 2.443 l 1.473,-1.472 1.59,0.962 c 0.213,-0.1 0.428,-0.189 0.642,-0.268 l 0.443,-1.803 h 4.883 l 0.443,1.803 c 0.214,0.08 0.428,0.169 0.642,0.268 l 1.59,-0.962 1.472,1.472 h 2.444 a 0.645,0.645 0 0 0 0.645,-0.645 v -1.29 a 0.645,0.645 0 0 0 -0.645,-0.646 h -1.29 a 1.938,1.938 0 0 1 -1.936,-1.935 z m -12.258,-9.033 a 5.813,5.813 0 0 0 -5.807,5.807 v 1.935 h 1.936 v -5.161 h 1.29 v 5.161 h 5.161 v -5.161 h 1.29 v 5.161 h 1.936 v -1.934 a 5.813,5.813 0 0 0 -5.806,-5.807 z m 12.903,0 a 5.813,5.813 0 0 0 -5.806,5.807 v 1.935 h 1.935 v -5.161 h 1.29 v 5.161 h 5.162 v -5.161 h 1.29 v 5.161 h 1.935 v -1.934 a 5.813,5.813 0 0 0 -5.806,-5.808 z m 15.484,-1.29 a 4.522,4.522 0 0 1 4.516,4.516 4.522,4.522 0 0 1 -4.516,4.516 h -7.097 v -4.516 a 4.522,4.522 0 0 1 4.516,-4.516 z m 0,1.29 h -2.58 a 3.23,3.23 0 0 0 -3.227,3.226 v 3.226 h 5.807 a 3.23,3.23 0 0 0 3.226,-3.226 3.23,3.23 0 0 0 -3.226,-3.226 z m -3.226,3.871 v 1.29 h -1.29 v -1.29 z m 2.58,0 v 1.29 h -1.29 v -1.29 z m 2.581,0 v 1.29 h -1.29 v -1.29 z m 0,-2.58 v 1.29 h -6.451 v -1.29 z m -30.322,-9.033 a 3.23,3.23 0 0 0 -3.226,3.226 3.23,3.23 0 0 0 3.226,3.226 3.23,3.23 0 0 0 3.226,-3.226 3.23,3.23 0 0 0 -3.226,-3.226 z m 12.903,0 a 3.23,3.23 0 0 0 -3.226,3.226 3.23,3.23 0 0 0 3.226,3.226 3.23,3.23 0 0 0 3.226,-3.226 3.23,3.23 0 0 0 -3.226,-3.226 z"
       id="path11" />
  </g>
</svg>
