<?xml version="1.0" encoding="UTF-8" standalone="no"?>
<svg
   width="72"
   height="72"
   version="1.1"
   id="svg15"
   sodipodi:docname="icon-marketing.svg"
   inkscape:version="1.1 (c68e22c387, 2021-05-23)"
   xmlns:inkscape="http://www.inkscape.org/namespaces/inkscape"
   xmlns:sodipodi="http://sodipodi.sourceforge.net/DTD/sodipodi-0.dtd"
   xmlns:xlink="http://www.w3.org/1999/xlink"
   xmlns="http://www.w3.org/2000/svg"
   xmlns:svg="http://www.w3.org/2000/svg">
  <sodipodi:namedview
     id="namedview17"
     pagecolor="#505050"
     bordercolor="#eeeeee"
     borderopacity="1"
     inkscape:pageshadow="0"
     inkscape:pageopacity="0"
     inkscape:pagecheckerboard="0"
     showgrid="false"
     inkscape:zoom="7.7777778"
     inkscape:cx="54.192857"
     inkscape:cy="36.064286"
     inkscape:window-width="1366"
     inkscape:window-height="745"
     inkscape:window-x="-8"
     inkscape:window-y="-8"
     inkscape:window-maximized="1"
     inkscape:current-layer="g13" />
  <defs
     id="defs7">
    <linearGradient
       id="a"
       x1="0%"
       x2="99.58%"
       y1="0%"
       y2="99.58%">
      <stop
         offset="0%"
         stop-color="#33D35E"
         id="stop2" />
      <stop
         offset="100%"
         stop-color="#2AB6D9"
         id="stop4" />
    </linearGradient>
    <linearGradient
       inkscape:collect="always"
       xlink:href="#azul"
       id="linearGradient986"
       x1="-5.9142857"
       y1="70.585716"
       x2="4.6285748"
       y2="64.800003"
       gradientUnits="userSpaceOnUse"
       gradientTransform="translate(0.12857114,0.12857157)" />
    <linearGradient
       inkscape:collect="always"
       id="azul">
      <stop
         style="stop-color:#5bbffb;stop-opacity:1;"
         offset="0"
         id="stop980" />
      <stop
         style="stop-color:#2e56a6;stop-opacity:1"
         offset="1"
         id="stop982" />
    </linearGradient>
  </defs>
  <g
     fill="none"
     fill-rule="evenodd"
     id="g13">
    <circle
       cx="36.128571"
       cy="36.128571"
       fill="url(#a)"
       id="circle9"
       style="mix-blend-mode:normal;fill:url(#linearGradient986);fill-opacity:1;paint-order:stroke fill markers"
       r="36" />
    <path
       fill="#ffffff"
       fill-rule="nonzero"
       d="m 43.542429,15.742857 a 3.096,3.096 0 0 1 3.092,3.092 v 7.57 c 5.23,0.286 9.393,4.365 9.393,9.338 0,4.973 -4.162,9.052 -9.393,9.338 v 7.57 a 3.095,3.095 0 0 1 -3.092,3.092 h -17.534 a 3.095,3.095 0 0 1 -3.092,-3.092 v -7.24 a 0.587,0.587 0 1 1 1.174,0 v 3.522 h 21.37 v -3.852 a 10.479,10.479 0 0 1 -2.89,-0.568 l -4.383,2.391 c -0.466,0.254 -1.013,-0.22 -0.833,-0.716 l 1.308,-3.596 h -6.705 a 0.592,0.592 0 0 1 -0.415,-0.172 l -4.697,-4.696 a 0.593,0.593 0 0 1 -0.172,-0.415 v -12.838 c 0,-0.324 0.263,-0.587 0.587,-0.587 h 15.03 c 0.324,0 0.587,0.263 0.587,0.587 v 2.402 c 0.819,-0.258 1.685,-0.419 2.583,-0.468 v -4.478 h -21.371 v 20.704 a 0.587,0.587 0 1 1 -1.174,0 v -23.796 a 3.096,3.096 0 0 1 3.093,-3.092 z m 1.918,34.364 h -21.371 v 2.544 a 1.92,1.92 0 0 0 1.918,1.918 h 17.534 a 1.92,1.92 0 0 0 1.918,-1.918 v -2.544 z m -9.433,0.705 c 0.325,0 0.587,0.262 0.587,0.587 v 1.878 a 0.587,0.587 0 0 1 -0.587,0.587 h -2.505 a 0.587,0.587 0 0 1 -0.587,-0.587 v -1.878 c 0,-0.325 0.263,-0.587 0.587,-0.587 z m -0.587,1.174 h -1.33 v 0.704 h 1.33 z m 10.607,-24.423 c -4.856,0 -8.806,3.67 -8.806,8.18 0,2.217 0.94,4.293 2.647,5.846 0.177,0.16 0.239,0.41 0.157,0.635 l -1.056,2.905 3.251,-1.773 a 0.587,0.587 0 0 1 0.49,-0.034 9.343,9.343 0 0 0 3.317,0.601 c 4.856,0 8.806,-3.67 8.806,-8.18 0,-4.51 -3.95,-8.18 -8.806,-8.18 z m 0,1.33 c 0.324,0 0.587,0.264 0.587,0.588 v 1.291 h 0.04 a 2.469,2.469 0 0 1 2.465,2.466 v 0.626 a 0.587,0.587 0 1 1 -1.174,0 v -0.626 c 0,-0.712 -0.58,-1.291 -1.292,-1.291 h -0.94 c -0.884,0 -1.604,0.72 -1.604,1.604 0,0.885 0.72,1.605 1.605,1.605 h 0.626 a 2.782,2.782 0 0 1 2.779,2.779 c 0,1.44 -1.1,2.627 -2.505,2.765 v 1.305 a 0.587,0.587 0 1 1 -1.174,0 v -1.291 h -0.04 a 2.469,2.469 0 0 1 -2.465,-2.466 0.587,0.587 0 1 1 1.174,0 c 0,0.712 0.58,1.291 1.292,1.291 h 0.939 c 0.885,0 1.605,-0.72 1.605,-1.604 0,-0.885 -0.72,-1.605 -1.605,-1.605 h -0.626 a 2.782,2.782 0 0 1 -2.78,-2.779 c 0,-1.44 1.102,-2.627 2.506,-2.765 v -1.305 c 0,-0.324 0.263,-0.587 0.587,-0.587 z m -4.345,-3.835 h -13.855 v 11.663 h 4.11 c 0.324,0 0.587,0.263 0.587,0.588 v 4.11 h 5.567 c -1.327,-1.622 -2.044,-3.593 -2.044,-5.676 0,-1.112 0.208,-2.18 0.59,-3.17 h -6.266 a 0.587,0.587 0 1 1 0,-1.174 h 6.82 c 0.399,-0.711 0.893,-1.369 1.466,-1.957 h -2.023 a 0.587,0.587 0 1 1 0,-1.174 h 3.13 c 0.076,0 0.148,0.014 0.214,0.04 0.53,-0.38 1.1,-0.71 1.704,-0.985 z m -10.332,12.838 h -2.692 l 2.692,2.692 z m 3.405,-3.366 a 0.587,0.587 0 1 1 0,1.174 h -4.384 a 0.587,0.587 0 1 1 0,-1.174 z m -0.626,-6.263 a 0.5875,0.5875 0 1 1 0,1.175 h -3.758 a 0.5875,0.5875 0 1 1 0,-1.175 z m 9.393,-11.35 h -17.534 a 1.92,1.92 0 0 0 -1.918,1.918 v 1.918 h 21.37 v -1.918 a 1.92,1.92 0 0 0 -1.918,-1.918 z m -7.515,1.33 a 0.5875,0.5875 0 1 1 0,1.175 h -2.505 a 0.587,0.587 0 1 1 0,-1.174 z"
       id="path11" />
  </g>
</svg>
