<?xml version="1.0" encoding="UTF-8" standalone="no"?>
<svg
   class="icon icon-tabler icon-tabler-scale"
   width="72"
   height="72"
   viewBox="0 0 39.272727 39.272727"
   stroke-width="1.5"
   stroke="#2c3e50"
   fill="none"
   stroke-linecap="round"
   stroke-linejoin="round"
   version="1.1"
   id="svg14"
   sodipodi:docname="icon-legal.svg"
   inkscape:version="1.1 (c68e22c387, 2021-05-23)"
   xmlns:inkscape="http://www.inkscape.org/namespaces/inkscape"
   xmlns:sodipodi="http://sodipodi.sourceforge.net/DTD/sodipodi-0.dtd"
   xmlns:xlink="http://www.w3.org/1999/xlink"
   xmlns="http://www.w3.org/2000/svg"
   xmlns:svg="http://www.w3.org/2000/svg">
  <defs
     id="defs18">
    <linearGradient
       inkscape:collect="always"
       xlink:href="#azul"
       id="linearGradient986"
       x1="-12.885714"
       y1="68.842857"
       x2="-8.8285646"
       y2="67"
       gradientUnits="userSpaceOnUse"
       gradientTransform="scale(0.54545455)" />
    <linearGradient
       inkscape:collect="always"
       id="azul">
      <stop
         style="stop-color:#5bbffb;stop-opacity:1;"
         offset="0"
         id="stop980" />
      <stop
         style="stop-color:#2e56a6;stop-opacity:1"
         offset="1"
         id="stop982" />
    </linearGradient>
  </defs>
  <sodipodi:namedview
     id="namedview16"
     pagecolor="#505050"
     bordercolor="#eeeeee"
     borderopacity="1"
     inkscape:pageshadow="0"
     inkscape:pageopacity="0"
     inkscape:pagecheckerboard="0"
     showgrid="false"
     inkscape:zoom="6.3636365"
     inkscape:cx="42.664285"
     inkscape:cy="35.278571"
     inkscape:window-width="1366"
     inkscape:window-height="745"
     inkscape:window-x="-8"
     inkscape:window-y="-8"
     inkscape:window-maximized="1"
     inkscape:current-layer="svg14"
     fit-margin-top="0"
     fit-margin-left="0"
     fit-margin-right="0"
     fit-margin-bottom="0" />
  <path
     stroke="none"
     d="M 7.5506492,10.979222 H 31.550649 v 24 H 7.5506492 Z"
     fill="none"
     id="path2" />
  <circle
     cx="19.636364"
     cy="19.636364"
     fill="url(#a)"
     id="circle9"
     style="mix-blend-mode:normal;fill:url(#linearGradient986);fill-opacity:1;stroke-width:0;stroke-miterlimit:4;stroke-dasharray:none;paint-order:stroke fill markers"
     r="19.636364" />
  <path
     style="fill:#ffffff;fill-opacity:1;stroke-width:0;paint-order:stroke fill markers;stroke-miterlimit:4;stroke-dasharray:none;stroke:none"
     d="M 13.387696,29.07457 C 12.687383,28.823348 12.59094,27.861465 13.229783,27.499616 l 0.200469,-0.113552 2.606853,-8.34e-4 2.606852,-8.33e-4 v -7.861224 -7.861238 l -0.163715,0.03 c -0.09005,0.01649 -1.155559,0.195215 -2.367812,0.397144 -1.212254,0.201931 -2.216448,0.379498 -2.231544,0.394595 -0.01509,0.01511 0.657234,1.398233 1.494067,3.073635 l 1.521513,3.046183 -0.008,0.419266 c -0.0107,0.564732 -0.166281,1.188584 -0.433779,1.73973 -1.605763,3.308461 -6.307009,3.308461 -7.9127709,0 -0.267549,-0.551249 -0.4230498,-1.175016 -0.433787,-1.740068 l -0.00799,-0.419602 1.8437803,-3.690256 c 1.5335483,-3.069339 1.8725673,-3.712214 2.0148613,-3.820756 0.157265,-0.119962 0.433711,-0.174106 3.423485,-0.670519 l 3.252405,-0.5400198 0.01722,-0.9083946 c 0.01521,-0.8027256 0.02944,-0.9318349 0.122342,-1.1099067 0.327436,-0.6276285 1.225495,-0.6276285 1.552779,0 0.09161,0.1756914 0.108312,0.3174608 0.130317,1.1064226 l 0.02524,0.9049093 3.239648,0.5398562 c 3.009496,0.501505 3.252142,0.549388 3.41551,0.674005 0.148547,0.113316 0.462247,0.707336 2.019642,3.824403 l 1.843781,3.690256 -0.008,0.419602 c -0.0107,0.565052 -0.166238,1.188819 -0.433786,1.740067 -1.605762,3.308461 -6.307008,3.308461 -7.91277,0 -0.267485,-0.551144 -0.423034,-1.174996 -0.433766,-1.739728 l -0.008,-0.419266 1.521515,-3.046183 c 0.836832,-1.675402 1.508661,-3.059039 1.49295,-3.074749 -0.02198,-0.02199 -3.23814,-0.575957 -4.547865,-0.78335 l -0.21409,-0.0339 v 7.859551 7.85955 l 2.606852,8.33e-4 2.606854,8.34e-4 0.200469,0.113552 c 0.581123,0.329156 0.558593,1.207716 -0.03935,1.534723 -0.150551,0.08233 -0.557337,0.08882 -6.205986,0.09891 -5.030878,0.0089 -6.077364,-8.33e-4 -6.238553,-0.05868 z m -0.29695,-7.660223 c 0.643344,-0.151696 1.27855,-0.594779 1.623594,-1.132523 0.191739,-0.298824 0.400899,-0.868687 0.402378,-1.096291 7.68e-4,-0.114499 -0.38817,-0.942299 -1.29584,-2.75819 -0.713296,-1.427026 -1.308512,-2.594592 -1.322704,-2.594592 -0.0142,0 -0.613742,1.176667 -1.332334,2.614817 l -1.3065321,2.614816 0.059451,0.319697 c 0.0898,0.482906 0.3302168,0.924317 0.7123538,1.307884 0.667517,0.670019 1.566878,0.934887 2.459635,0.724382 z m 14.104707,0 c 0.643344,-0.151696 1.278551,-0.594779 1.623594,-1.132523 0.19174,-0.298824 0.4009,-0.868687 0.402378,-1.096291 7.69e-4,-0.114499 -0.38817,-0.942299 -1.295839,-2.75819 -0.713296,-1.427026 -1.308513,-2.594592 -1.322704,-2.594592 -0.0142,0 -0.613742,1.176667 -1.332335,2.614817 l -1.306532,2.614816 0.05945,0.319697 c 0.0898,0.482906 0.330217,0.924317 0.712352,1.307884 0.667518,0.670019 1.566879,0.934887 2.459634,0.724382 z"
     id="path872" />
</svg>
