<?xml version="1.0" standalone="no"?>
<svg version="1.1" id="Layer_1" xmlns="http://www.w3.org/2000/svg" xmlns:xlink="http://www.w3.org/1999/xlink" x="0px" y="0px" viewBox="0 0 595.276 595.276" enable-background="new 0 0 595.276 595.276" xml:space="preserve">
<path id="color_x5F_6" fill="#000000" d="M515.932,531.943c0,1.968-1.595,3.562-3.562,3.562H61.715
	c-1.968,0-3.563-1.595-3.563-3.562s1.595-3.563,3.563-3.563h25.622h5.757h3.49h2.574h3.201h1.129h3.153h7.183h3.049h5.906h3.159
	h4.67h3.339h5.19h3.283h9.064h118.015v2h145.964v-2h0.455h3.201h1.129h3.153h7.183h3.049h5.906h3.159h4.67h3.339h5.19h3.283h9.064
	h44.125C514.337,528.381,515.932,529.976,515.932,531.943z M219.715,512.879l-5.567,0.311l-1.258,0.07c0,0-0.8,2.002-1.591,4.705
	c-2.989-0.684-6.175-1.788-7.756-4.226l-3.339-5.247l-0.849,0.636l-3.177,2.378c-1.094,0.819-2.39,1.299-3.708,1.372l-5.609,0.311
	l-1.267,0.07c0,0-3.821,7.086-4.848,12.648c-0.155,0.839,0.43,1.572,1.273,1.572h29.259h13.295h29.259
	c0.672,0,1.069-0.708,0.734-1.309l-0.997-1.79c-1.41-2.531-3.876-4.336-6.682-4.891l-6.496-1.284
	c-3.368-0.666-7.326-1.724-9.483-4.467l-4.063-5.247l-0.762,0.636l-2.849,2.378C222.253,512.326,221.023,512.805,219.715,512.879z"></path>
<path id="color_x5F_5" fill="#FFD2BB" d="M309.255,284.314c-0.009,0.02-0.019,0.041-0.028,0.061l-0.939-3.803
	c0.936,0.319,1.91,0.896,2.873,1.817c0.274,0.262,0.552,0.502,0.834,0.728c-0.472-0.201-0.951-0.385-1.437-0.545
	c-0.233-0.077-0.469-0.142-0.706-0.203c-0.001,0.004-0.002,0.008-0.002,0.012c2.151,0.852,4.152,2.305,5.601,3.881
	c0.34,0.37-0.142,0.963-0.529,0.734c-1.717-1.018-3.478-1.977-5.357-2.593C309.462,284.37,309.358,284.344,309.255,284.314z
	 M314.036,288.207c-1.248-1.359-2.913-2.617-4.724-3.488l0.57,2.308c1.244,0.551,2.447,1.214,3.626,1.913
	C313.894,289.17,314.377,288.577,314.036,288.207z M316.234,285.186c-0.17-0.039-0.339-0.081-0.507-0.128
	c0.062,0.036,0.125,0.071,0.186,0.107C316.02,285.229,316.133,285.226,316.234,285.186z M306.177,286.63
	c0.648-0.074,1.305-0.17,1.974-0.283c0.019,0.006,0.037,0.015,0.055,0.021l-0.982-3.978L306.177,286.63z M297.338,284.009
	c0.023,0.026,0.048,0.047,0.071,0.073c2.035,2.222,4.503,2.779,7.225,2.67l1.643-6.652c-0.982-0.539-0.873-2.214,0.453-2.415
	c0.029-0.004,0.058-0.009,0.087-0.013c2.223-0.299,4.666,2.906,8.867,3.948c-2.224-2.381-5.695-4.465-9.022-4.566
	c-2.918-0.795-5.974-1.04-9.012-0.706c-0.019,0.002-0.039,0.002-0.058,0.004L297.338,284.009z M196.178,511.507l3.177-2.378
	l0.404-2.518h-12.964l0.065,6.58l5.609-0.311C193.788,512.805,195.084,512.326,196.178,511.507z M214.148,513.19l5.567-0.311
	c1.308-0.073,2.538-0.552,3.519-1.372l2.849-2.378l0.057-2.518h-12.965L214.148,513.19z M209.353,233.702
	c0.886,2.192,0.685,3.97,0.886,6.372l3.808,0.148l0.087-1.038l0.596-7.077l0.418-4.962h2.484c5.933,0,10.743-4.81,10.743-10.743
	V194.53v-5.62h-15.883l-0.995,5.675l-2.952,1.518l-2.34,11.847h-2.009v-1.426c0-1.984-1.623-3.607-3.607-3.607
	s-3.607,1.623-3.607,3.607v1.839v0.678c0,0.77,0.252,1.481,0.668,2.068c0.335,0.472,0.773,0.866,1.29,1.134
	c0,1.196,0.156,2.353,0.422,3.467l-0.108,1.28l-0.79,9.38C202.822,227.424,205.979,230.559,209.353,233.702z M248.809,331.032
	c0.008,0.034,0.019,0.065,0.027,0.098c1.008,4.148,4.386,5.788,8.318,7.165c1.349,1.445,2.429,3.135,3.442,4.855
	c0.228,0.387,0.936,0.101,0.817-0.388c-0.455-1.858-1.343-3.844-2.578-5.518c0.091-0.066,0.18-0.132,0.267-0.199
	c0.076,0.076,0.154,0.15,0.228,0.229c1.349,1.445,2.429,3.135,3.442,4.855c0.228,0.387,0.936,0.101,0.817-0.388
	c-0.509-2.079-1.561-4.318-3.035-6.101c0.003-0.003,0.005-0.007,0.008-0.01c0.178,0.167,0.353,0.338,0.52,0.518
	c1.349,1.445,2.429,3.135,3.442,4.855c0.228,0.387,0.936,0.101,0.817-0.388c-0.586-2.395-1.891-5.005-3.733-6.882
	c0.044-0.122,0.084-0.249,0.123-0.377c0.025,0.026,0.051,0.049,0.075,0.075c1.349,1.445,2.429,3.135,3.442,4.855
	c0.228,0.387,0.936,0.101,0.817-0.388c-0.78-3.188-2.834-6.751-5.735-8.464c-2.172-2.103-4.732-3.792-7.554-4.965
	c-0.018-0.008-0.035-0.017-0.053-0.025L248.809,331.032z"></path>
<path id="color_x5F_4" fill="#000000" d="M228.01,478.737c-0.01,0.247-0.02,0.495-0.03,0.743c-0.364,8.96-0.491,17.981-0.576,27.131
	h-1.264h-12.965h-1.518c-3.252-9.686-5.217-20.111-5.703-30.489c-1.87,10.063-3.415,20.196-4.93,30.489h-1.264h-12.964h-1.518
	c-2.97-15.018-2.616-31.809,1.429-47.448c0.066-0.254,0.139-0.504,0.207-0.757c1.247-4.67,2.809-9.238,4.731-13.613
	c9.267-21.097,1.02-44.895-3.371-68.387c-0.113-0.603-0.222-1.206-0.33-1.808c-1.245-6.993-2.09-13.95-1.986-20.796
	c-0.933-0.321-1.819-0.676-2.643-1.073c-4.072-43.165-10.366-65.725-8.027-100.527c-0.247-1.559-0.117-3.1,0.33-4.523
	c0.35-4.667,1.092-11.145,7.227-15.558c2.694-1.938,5.677-3.192,8.815-3.863c1.016,1.042,2.005,2.101,2.982,3.168
	c0.24,0.263,0.479,0.526,0.716,0.791c0.937,1.042,1.86,2.092,2.758,3.159c0.03,0.036,0.061,0.071,0.091,0.106
	c0.955,1.138,1.882,2.296,2.79,3.464c0.157,0.203,0.313,0.406,0.469,0.61c1.834,2.392,3.568,4.848,5.192,7.374
	c0.071,0.111,0.141,0.222,0.211,0.333c1.668,2.618,3.22,5.309,4.641,8.08c0.018,0.034,0.035,0.069,0.052,0.104
	c0.719,1.406,1.406,2.831,2.057,4.278c0.93,2.066,1.791,4.173,2.577,6.327c0.025,0.068,0.052,0.136,0.077,0.204
	c0.349,0.963,0.679,1.936,0.998,2.917c0.049,0.151,0.104,0.3,0.152,0.451c0.356,1.114,0.694,2.239,1.01,3.377
	c0.284-1.326,0.541-2.652,0.788-3.979c0.1-0.54,0.196-1.081,0.289-1.621c0.129-0.74,0.248-1.48,0.366-2.22
	c0.276-1.758,0.527-3.516,0.735-5.274c0.001-0.005,0.001-0.01,0.002-0.014l0,0c0.089-0.753,0.164-1.505,0.24-2.258
	c0.056-0.564,0.108-1.129,0.157-1.693c0.069-0.795,0.135-1.591,0.188-2.386c0.067-1.013,0.123-2.027,0.165-3.04
	c0.023-0.561,0.038-1.121,0.053-1.682c0.025-0.955,0.039-1.91,0.04-2.865c0-0.353,0.008-0.705,0.005-1.058
	c-0.012-1.298-0.052-2.595-0.11-3.893c-0.016-0.36-0.035-0.721-0.055-1.081c-0.075-1.363-0.165-2.727-0.294-4.09l0.08,0.057
	c4.49,3.195,6.969,8.538,6.651,14.039c-0.066,1.14-0.105,2.298-0.153,3.45c5.778,8.007,11.83,16.172,17.307,24.007
	c3.221,0.077,6.871,0.047,10.739-0.036c11.665-0.251,25.426-1.02,36.346-1.088l-0.376,10.227
	c-12.111,4.811-24.753,8.297-37.626,10.277c-5.917,0.91-11.881,1.514-17.865,1.772l-7.575-8.846
	c0.648,7.809,1.535,15.63,2.588,23.342c5.878,2.956,11.687,5.893,16.719,8.623l-5.261,8.778c-3.021-0.38-6.031-0.845-9.029-1.379
	c0.926,5.564,1.91,11.016,2.925,16.287c-0.629,0.776-1.419,1.514-2.321,2.22c0.683,20.578,1.499,43.369,0.415,64.863
	c-0.016,0.325-0.036,0.647-0.053,0.971c-0.506,9.508-1.38,18.758-2.828,27.424C229.575,453.464,228.546,466.039,228.01,478.737z
	 M340.459,268.859L340.459,268.859c0.657,0,1.192-0.534,1.192-1.191s-0.534-1.191-1.191-1.191l0,0c-0.657,0-1.191,0.534-1.191,1.191
	S339.802,268.859,340.459,268.859z M315.684,281.62c1.366,0.339,2.915,0.452,4.705,0.138c5.242-0.92,11.571-4.372,16.916-5.524
	c-0.561-0.891-1.47-0.949-1.628-0.951h-0.024h-2.829c-0.587,0-1.063-0.476-1.063-1.063s0.476-1.063,1.063-1.063h2.453l2.474-10.979
	h-4.948c-0.587,0-1.063-0.476-1.063-1.063c0-0.587,0.476-1.063,1.063-1.063h5.533c-0.944-0.667-1.562-1.765-1.562-3.009
	c0-2.035,1.65-3.685,3.685-3.685s3.685,1.65,3.685,3.685c0,1.244-0.618,2.342-1.562,3.009h5.491c0.587,0,1.063,0.476,1.063,1.063
	c0,0.587-0.476,1.063-1.063,1.063h-4.89l2.416,10.979h2.496c0.587,0,1.063,0.476,1.063,1.063s-0.476,1.063-1.063,1.063h-2.818
	h-0.024c-0.157,0.002-1.057,0.059-1.619,0.936c5.36,1.138,11.721,4.616,16.985,5.539c7.298,1.28,10.628-4.481,13.572-4.086
	c0.029,0.004,0.059,0.008,0.087,0.013c1.326,0.201,1.435,1.875,0.453,2.415l8.532,34.552h2.006c0.341,0,0.621,0.279,0.621,0.621
	s-0.279,0.621-0.621,0.621h-0.173h-3.039h-8.274h-8.273h-3.039h-0.173c-0.341,0-0.621-0.279-0.621-0.621s0.279-0.621,0.621-0.621
	h2.006l8.416-34.079c-0.936,0.319-1.91,0.896-2.873,1.817c-4.695,4.496-10.5,3.555-18.61,0.768
	c-0.717-0.246-1.406-0.457-2.073-0.642c0.007,0.139,0.01,0.279,0.01,0.42c0,3.859-2.516,7.139-5.992,8.292v16.462v4.121v0.039
	c0.025,0.036,0.067,0.096,0.124,0.181c1.02,1.532,6.633,10.867,0,21.83c-0.041,0.067-0.082,0.135-0.124,0.202v0.046h21.153
	c1.318,0,2.397,1.078,2.397,2.397v1.577h-26.197h-26.348v-1.577c0-1.318,1.078-2.397,2.397-2.397h21.181
	c-0.026-0.041-0.051-0.083-0.076-0.124c-6.944-11.332-0.766-20.954,0-22.066c0.02-0.029,0.036-0.051,0.048-0.069v-0.039v-4.121
	v-16.448c-3.499-1.141-6.035-4.432-6.035-8.307c0-0.129,0.004-0.257,0.009-0.384c-0.626,0.176-1.271,0.375-1.941,0.605
	c-5.426,1.864-9.816,2.892-13.536,2.029c-0.17-0.039-0.339-0.081-0.507-0.128c-1.324-0.376-2.564-1.003-3.733-1.941
	c-0.282-0.226-0.56-0.466-0.834-0.728c-0.962-0.921-1.937-1.498-2.873-1.817l0.939,3.803l0.085,0.344l0.57,2.308l6.822,27.624h2.006
	c0.341,0,0.621,0.279,0.621,0.621c0,0.341-0.279,0.621-0.621,0.621h-0.173h-3.039h-8.273h-8.274h-3.039h-0.173
	c-0.341,0-0.621-0.279-0.621-0.621c0-0.341,0.279-0.621,0.621-0.621h2.006l6.89-27.9l1.643-6.652
	c-0.982-0.539-0.873-2.214,0.453-2.415c0.029-0.004,0.058-0.009,0.087-0.013C309.039,277.374,311.483,280.579,315.684,281.62z
	 M381.751,314.651l-7.967-32.262l-7.967,32.262h7.967H381.751z M343.182,288.9c2.255-1.042,3.827-3.32,3.827-5.963
	c0-0.326-0.027-0.645-0.073-0.957c-1.401-0.284-2.657-0.438-3.755-0.504v7.424H343.182z M338.185,267.668
	c0,1.254,1.02,2.274,2.274,2.274l0,0c1.254,0,2.274-1.02,2.274-2.274s-1.02-2.274-2.274-2.274l0,0
	C339.206,265.394,338.185,266.414,338.185,267.668z M333.867,282.936c0,2.66,1.591,4.951,3.87,5.984v-7.439
	c-1.112,0.072-2.382,0.23-3.801,0.525C333.892,282.31,333.867,282.62,333.867,282.936z M308.206,286.368l-0.982-3.978l-1.047,4.24
	l-6.92,28.022h7.967h7.967L308.206,286.368z M269.499,530.381v-2v-38.777v-0.645v-63.52v-0.744v-82.796h42.698v-0.167
	c0-1.318,0.961-2.397,2.136-2.397h2.718h23.483h0.004h23.353h2.784c1.175,0,2.136,1.078,2.136,2.397v0.167h46.652v21.41v1.64v88.711
	v0.886v12.648v14.583V503.6v12.876v10.411v1.494v2L269.499,530.381L269.499,530.381z M273.499,490.108v36.273h129.716h5.589h2.659
	v-1.579v-10.891v-10.088V474.08v-16.8v-0.878v-85.737v-1.271v-3.496H273.499v59.456v0.739v63.398V490.108z"></path>
<path id="color_x5F_3" fill="#000000" d="M199.363,215.71l-0.108,1.28c-0.573-1.95-1.108-3.911-1.604-5.881
	c0.335,0.472,0.773,0.866,1.29,1.134C198.941,213.439,199.097,214.596,199.363,215.71z M200.59,202.918
	c1.984,0,3.607,1.623,3.607,3.607v1.426h2.009l2.34-11.847l2.952-1.518l0.995-5.675h15.883v5.62
	c0.079-0.038,0.162-0.066,0.237-0.112c1.28-0.782,1.978-2.404,1.242-3.712c1.355,0.076,2.708-0.823,3.163-2.102
	s-0.285-2.31-1.385-3.106c1.554-0.591,2.618-2.275,2.482-3.932c-0.135-1.657-1.739-3.08-3.369-3.411
	c0.702-0.776,0.669-2.105-0.071-2.845c-0.74-0.741-2.346-1.476-3.123-0.775c0.035-1.5-0.911-2.977-2.288-3.573
	c-1.378-0.596-3.772-0.079-4.841,0.974c-0.068-0.609-0.328-1.18-0.711-1.655c-0.192-0.239-0.422-0.444-0.669-0.626
	c-0.559-0.414-1.23-0.675-1.928-0.674c-1.619,0.001-3.537,1.121-3.715,2.73c-0.717-1.768-2.813-2.85-4.67-2.41
	s-3.413,1.77-3.261,3.672c-0.63-1.71-2.779-2.676-4.476-2.014c-1.697,0.663-3.112,2.431-2.416,4.115
	c-0.359-1.195-1.927-1.722-3.078-1.242s-1.862,1.695-2.076,2.924c-0.214,1.229-0.239,2.779-0.037,4.01
	c-0.358-1.045-1.61-1.641-2.683-1.385c-1.074,0.257-1.891,1.249-2.078,2.338c-0.187,1.088,0.202,2.229,0.902,3.082
	c0.7,0.854,1.509,1.817,2.551,2.182c-0.964-0.067-1.806,0.855-1.872,1.819c-0.067,0.964,0.488,1.888,1.229,2.509
	s1.771,0.484,2.667,0.846c0.67,5.449,1.636,10.861,2.879,16.209v-1.839C196.983,204.541,198.607,202.918,200.59,202.918z"></path>
<path id="color_x5F_2" fill="#2e56a6" d="M405.74,196.111c0.768,0.913,1.526,1.837,2.272,2.77c0.154,0.192,0.122,0.472-0.07,0.626
	c-0.083,0.066-0.181,0.098-0.279,0.098c-0.13,0-0.26-0.057-0.348-0.168c-0.74-0.927-1.493-1.844-2.258-2.751
	c-0.158-0.188-0.134-0.469,0.054-0.628C405.3,195.901,405.581,195.924,405.74,196.111z M411.196,203.765
	c-0.198,0.145-0.242,0.424-0.097,0.623c0.7,0.958,1.386,1.924,2.061,2.9c0.086,0.125,0.225,0.192,0.366,0.192
	c0.088,0,0.176-0.026,0.253-0.079c0.203-0.14,0.253-0.417,0.113-0.62c-0.679-0.983-1.37-1.956-2.074-2.919
	C411.673,203.664,411.394,203.62,411.196,203.765z M416.728,211.873c-0.209,0.13-0.272,0.405-0.141,0.614
	c0.63,1.003,1.248,2.015,1.854,3.036c0.083,0.14,0.232,0.218,0.383,0.218c0.077,0,0.156-0.02,0.227-0.062
	c0.211-0.126,0.282-0.399,0.156-0.611c-0.609-1.026-1.23-2.044-1.864-3.054C417.21,211.805,416.936,211.743,416.728,211.873z
	 M423.53,224.343c0.068,0,0.136-0.015,0.2-0.047c0.22-0.11,0.308-0.379,0.198-0.598c-0.535-1.066-1.084-2.124-1.646-3.174
	c-0.117-0.218-0.39-0.298-0.603-0.183c-0.218,0.116-0.299,0.386-0.184,0.603c0.558,1.043,1.104,2.095,1.637,3.154
	C423.21,224.254,423.367,224.343,423.53,224.343z M421.575,352.962c-0.56,1.05-1.134,2.094-1.719,3.128
	c-0.121,0.214-0.045,0.486,0.169,0.607c0.07,0.039,0.145,0.057,0.219,0.057c0.155,0,0.305-0.081,0.388-0.226
	c0.589-1.042,1.166-2.09,1.73-3.147c0.116-0.218,0.033-0.487-0.184-0.603C421.962,352.664,421.692,352.744,421.575,352.962z
	 M391.409,181.991c-0.164,0.183-0.15,0.465,0.034,0.629c0.883,0.795,1.756,1.6,2.619,2.415c0.086,0.081,0.197,0.122,0.306,0.122
	c0.118,0,0.236-0.047,0.324-0.14c0.169-0.179,0.161-0.461-0.017-0.63c-0.868-0.821-1.748-1.631-2.637-2.43
	C391.858,181.794,391.574,181.808,391.409,181.991z M368.128,164.599c-0.212-0.122-0.486-0.049-0.608,0.163
	c-0.124,0.213-0.05,0.486,0.163,0.609c1.03,0.595,2.054,1.202,3.067,1.823c0.072,0.044,0.152,0.065,0.232,0.065
	c0.15,0,0.296-0.076,0.38-0.213c0.128-0.21,0.062-0.484-0.148-0.613C370.193,165.809,369.165,165.197,368.128,164.599z
	 M398.506,188.788c-0.177,0.171-0.182,0.453-0.01,0.63c0.826,0.853,1.64,1.717,2.446,2.59c0.088,0.095,0.207,0.144,0.327,0.144
	c0.108,0,0.217-0.039,0.302-0.118c0.181-0.167,0.192-0.449,0.025-0.63c-0.809-0.878-1.629-1.747-2.46-2.606
	C398.965,188.622,398.683,188.618,398.506,188.788z M425.885,344.145c-0.486,1.089-0.984,2.169-1.497,3.243
	c-0.106,0.223-0.012,0.488,0.21,0.594c0.063,0.03,0.128,0.044,0.192,0.044c0.166,0,0.325-0.093,0.402-0.253
	c0.516-1.081,1.018-2.168,1.507-3.264c0.1-0.225-0.001-0.488-0.225-0.589C426.25,343.822,425.986,343.921,425.885,344.145z
	 M359.408,159.967c-0.218-0.106-0.487-0.016-0.595,0.206c-0.108,0.221-0.016,0.488,0.205,0.596c1.071,0.522,2.135,1.056,3.19,1.604
	c0.066,0.034,0.136,0.05,0.205,0.05c0.161,0,0.316-0.087,0.395-0.24c0.114-0.218,0.029-0.487-0.19-0.601
	C361.556,161.03,360.486,160.492,359.408,159.967z M383.855,175.7c-0.151,0.194-0.117,0.474,0.077,0.625
	c0.937,0.731,1.864,1.474,2.782,2.229c0.083,0.068,0.183,0.101,0.283,0.101c0.129,0,0.256-0.055,0.345-0.163
	c0.156-0.19,0.129-0.471-0.062-0.627c-0.923-0.759-1.857-1.507-2.799-2.242C384.286,175.473,384.007,175.505,383.855,175.7z
	 M375.88,169.948c-0.137,0.204-0.083,0.481,0.121,0.618c0.986,0.665,1.964,1.342,2.932,2.031c0.078,0.056,0.169,0.083,0.258,0.083
	c0.139,0,0.276-0.065,0.363-0.187c0.143-0.201,0.096-0.479-0.104-0.621c-0.975-0.694-1.958-1.375-2.951-2.044
	C376.295,169.691,376.019,169.743,375.88,169.948z M436.119,261.424c0.242-0.045,0.401-0.278,0.356-0.52
	c-0.221-1.177-0.455-2.349-0.704-3.516c-0.052-0.24-0.286-0.396-0.529-0.342c-0.24,0.051-0.394,0.288-0.343,0.529
	c0.247,1.159,0.481,2.324,0.701,3.494c0.04,0.214,0.227,0.363,0.437,0.363C436.064,261.432,436.092,261.43,436.119,261.424z
	 M436.986,266.716c-0.244,0.034-0.413,0.26-0.379,0.503c0.165,1.173,0.317,2.351,0.453,3.534c0.027,0.227,0.219,0.394,0.442,0.394
	c0.017,0,0.035-0.001,0.052-0.003c0.245-0.028,0.419-0.249,0.392-0.494c-0.138-1.189-0.29-2.375-0.457-3.555
	C437.456,266.85,437.233,266.677,436.986,266.716z M434.506,320.219c0.035,0.009,0.07,0.012,0.104,0.012
	c0.202,0,0.385-0.137,0.433-0.342c0.277-1.162,0.539-2.328,0.787-3.499c0.05-0.241-0.103-0.477-0.344-0.528
	c-0.242-0.045-0.477,0.104-0.528,0.344c-0.246,1.164-0.507,2.323-0.781,3.476C434.119,319.921,434.267,320.161,434.506,320.219z
	 M436.476,310.592c0.025,0.004,0.05,0.006,0.074,0.006c0.213,0,0.402-0.155,0.439-0.372c0.196-1.178,0.375-2.359,0.54-3.545
	c0.034-0.244-0.136-0.469-0.38-0.503c-0.237-0.028-0.47,0.136-0.503,0.379c-0.164,1.179-0.343,2.353-0.537,3.523
	C436.07,310.323,436.233,310.552,436.476,310.592z M433.894,251.843c0.037,0,0.075-0.005,0.112-0.014
	c0.238-0.062,0.381-0.306,0.318-0.544c-0.302-1.158-0.618-2.311-0.949-3.458c-0.069-0.236-0.318-0.372-0.552-0.305
	c-0.237,0.068-0.372,0.315-0.305,0.552c0.329,1.139,0.643,2.285,0.943,3.435C433.515,251.71,433.695,251.843,433.894,251.843z
	 M427.62,233.25c0.057,0,0.116-0.011,0.171-0.034c0.227-0.095,0.334-0.355,0.239-0.583c-0.459-1.1-0.932-2.194-1.418-3.28
	c-0.101-0.226-0.365-0.325-0.588-0.225c-0.224,0.101-0.325,0.364-0.224,0.589c0.483,1.079,0.953,2.165,1.41,3.258
	C427.281,233.147,427.446,233.25,427.62,233.25z M350.379,155.956c-0.225-0.091-0.488,0.018-0.58,0.247
	c-0.092,0.228,0.018,0.488,0.247,0.58c1.106,0.446,2.205,0.904,3.296,1.378c0.058,0.025,0.118,0.036,0.178,0.036
	c0.172,0,0.336-0.101,0.409-0.268c0.097-0.226-0.006-0.488-0.232-0.586C352.598,156.866,351.492,156.404,350.379,155.956z
	 M429.567,335.042c-0.408,1.121-0.829,2.235-1.265,3.341c-0.09,0.229,0.022,0.488,0.251,0.578c0.054,0.022,0.109,0.031,0.164,0.031
	c0.178,0,0.345-0.107,0.414-0.282c0.439-1.116,0.864-2.236,1.274-3.364c0.084-0.231-0.035-0.486-0.266-0.571
	C429.906,334.693,429.651,334.812,429.567,335.042z M431.08,242.429c0.047,0,0.096-0.007,0.143-0.023
	c0.233-0.079,0.359-0.332,0.279-0.565c-0.383-1.134-0.78-2.262-1.19-3.382c-0.084-0.231-0.339-0.349-0.572-0.265
	c-0.231,0.085-0.35,0.341-0.265,0.572c0.408,1.114,0.802,2.234,1.183,3.362C430.721,242.312,430.894,242.429,431.08,242.429z
	 M438.841,290.612c0.03-1.191,0.044-2.386,0.044-3.584v-0.28c0-0.246-0.199-0.446-0.446-0.446c-0.246,0-0.445,0.199-0.445,0.446
	v0.28c0,1.191-0.015,2.379-0.044,3.562c-0.006,0.246,0.189,0.451,0.434,0.457c0.004,0,0.008,0,0.011,0
	C438.637,291.047,438.835,290.854,438.841,290.612z M437.813,300.855c0.227,0,0.421-0.173,0.443-0.403
	c0.112-1.187,0.21-2.379,0.292-3.574c0.017-0.245-0.169-0.458-0.414-0.475c-0.246-0.011-0.458,0.169-0.475,0.414
	c-0.082,1.187-0.178,2.371-0.29,3.55c-0.023,0.245,0.157,0.463,0.402,0.486C437.784,300.854,437.798,300.855,437.813,300.855z
	 M437.639,276.958c0.084,1.181,0.154,2.367,0.208,3.556c0.01,0.239,0.207,0.425,0.445,0.425c0.006,0,0.013,0,0.02,0
	c0.246-0.011,0.436-0.219,0.425-0.465c-0.054-1.197-0.124-2.391-0.208-3.58c-0.018-0.246-0.248-0.434-0.476-0.412
	C437.807,276.5,437.621,276.713,437.639,276.958z M433.148,325.405c-0.24-0.073-0.484,0.069-0.551,0.305
	c-0.327,1.143-0.668,2.281-1.023,3.413c-0.074,0.234,0.057,0.485,0.292,0.558c0.044,0.015,0.089,0.021,0.133,0.021
	c0.19,0,0.365-0.122,0.425-0.312c0.359-1.139,0.701-2.283,1.03-3.434C433.521,325.719,433.385,325.473,433.148,325.405z
	 M263.747,423.266c-1.154-0.286-2.303-0.587-3.446-0.901c-0.237-0.063-0.483,0.074-0.548,0.311
	c-0.065,0.238,0.074,0.483,0.311,0.548c1.151,0.317,2.307,0.619,3.469,0.907c0.036,0.009,0.072,0.013,0.107,0.013
	c0.2,0,0.382-0.136,0.432-0.339C264.132,423.567,263.986,423.325,263.747,423.266z M219.713,170.281
	c0.767-0.513,1.534-1.024,2.311-1.522c0.208-0.133,0.268-0.408,0.135-0.615c-0.132-0.207-0.409-0.269-0.615-0.135
	c-0.841,0.538-1.671,1.09-2.499,1.646C219.291,169.837,219.521,170.042,219.713,170.281z M254.33,420.575
	c-1.135-0.368-2.264-0.749-3.386-1.146c-0.233-0.084-0.486,0.04-0.569,0.271c-0.082,0.232,0.04,0.487,0.272,0.569
	c1.13,0.399,2.266,0.783,3.408,1.153c0.046,0.015,0.092,0.022,0.138,0.022c0.188,0,0.363-0.12,0.424-0.308
	C254.692,420.902,254.564,420.651,254.33,420.575z M245.099,417.22c-1.106-0.446-2.205-0.907-3.296-1.38
	c-0.224-0.098-0.487,0.006-0.586,0.232c-0.097,0.226,0.006,0.488,0.232,0.586c1.098,0.476,2.203,0.939,3.316,1.389
	c0.055,0.022,0.111,0.032,0.167,0.032c0.176,0,0.343-0.105,0.413-0.278C245.437,417.572,245.327,417.312,245.099,417.22z
	 M403.132,380.73c0.123,0,0.245-0.05,0.333-0.151c0.793-0.895,1.573-1.8,2.342-2.717c0.158-0.188,0.134-0.469-0.055-0.627
	c-0.188-0.158-0.469-0.133-0.627,0.055c-0.764,0.909-1.539,1.809-2.327,2.699c-0.164,0.184-0.146,0.466,0.038,0.628
	C402.921,380.693,403.027,380.73,403.132,380.73z M269.306,424.979c-0.037,0.183,0.046,0.362,0.193,0.459v-0.744
	C269.402,424.757,269.33,424.857,269.306,424.979z M273.694,425.803c0.031-0.18-0.051-0.354-0.195-0.449v0.739
	C273.597,426.028,273.672,425.929,273.694,425.803z M341.086,152.589c-0.232-0.075-0.485,0.053-0.56,0.287
	c-0.076,0.234,0.052,0.486,0.287,0.561c1.135,0.367,2.264,0.748,3.388,1.143c0.049,0.017,0.099,0.025,0.148,0.025
	c0.184,0,0.356-0.114,0.42-0.298c0.082-0.232-0.04-0.486-0.272-0.568C343.366,153.341,342.23,152.958,341.086,152.589z
	 M415.471,364.942c0.66-0.998,1.31-2.004,1.945-3.018c0.131-0.209,0.067-0.484-0.141-0.614c-0.208-0.13-0.484-0.068-0.614,0.141
	c-0.392,0.625-0.797,1.24-1.198,1.858v1.64C415.465,364.946,415.469,364.945,415.471,364.942z M161.862,326.093
	c0.056,0.196,0.234,0.323,0.428,0.323c0.041,0,0.082-0.005,0.124-0.017c0.236-0.068,0.373-0.315,0.305-0.551
	c-0.327-1.14-0.64-2.286-0.94-3.437c-0.062-0.238-0.305-0.379-0.543-0.319c-0.238,0.063-0.381,0.305-0.319,0.544
	C161.217,323.793,161.532,324.946,161.862,326.093z M159.911,316.883c0.03,0,0.062-0.003,0.093-0.01
	c0.241-0.051,0.394-0.288,0.343-0.528c-0.247-1.16-0.479-2.325-0.696-3.495c-0.045-0.242-0.278-0.401-0.519-0.356
	c-0.242,0.044-0.402,0.278-0.357,0.52c0.219,1.177,0.453,2.349,0.701,3.516C159.521,316.739,159.706,316.883,159.911,316.883z
	 M235.937,414.072c0.165,0,0.323-0.092,0.401-0.25c0.108-0.221,0.017-0.488-0.204-0.596c-0.526-0.257-1.044-0.527-1.566-0.79
	c-0.016,0.325-0.036,0.647-0.053,0.971c0.41,0.205,0.815,0.418,1.227,0.619C235.804,414.058,235.871,414.072,235.937,414.072z
	 M158.775,263.602c-0.246-0.046-0.472,0.124-0.512,0.367c-0.194,1.177-0.372,2.359-0.536,3.545c-0.034,0.244,0.136,0.469,0.38,0.502
	c0.02,0.003,0.041,0.004,0.061,0.004c0.219,0,0.41-0.161,0.441-0.385c0.163-1.179,0.341-2.353,0.533-3.523
	C159.182,263.871,159.017,263.642,158.775,263.602z M160.736,253.974c-0.238-0.059-0.48,0.091-0.536,0.331
	c-0.275,1.161-0.536,2.327-0.783,3.499c-0.05,0.241,0.104,0.477,0.344,0.528c0.031,0.006,0.062,0.01,0.092,0.01
	c0.206,0,0.392-0.144,0.436-0.354c0.245-1.164,0.504-2.323,0.778-3.477C161.124,254.271,160.976,254.031,160.736,253.974z
	 M163.369,244.508c-0.236-0.075-0.485,0.057-0.558,0.292c-0.357,1.139-0.699,2.285-1.027,3.435c-0.067,0.237,0.07,0.483,0.306,0.551
	c0.041,0.011,0.082,0.017,0.123,0.017c0.194,0,0.372-0.127,0.428-0.323c0.326-1.144,0.666-2.282,1.02-3.414
	C163.734,244.831,163.604,244.581,163.369,244.508z M158.207,307.206c0.021,0,0.041-0.002,0.062-0.004
	c0.244-0.034,0.414-0.259,0.379-0.503c-0.164-1.173-0.315-2.351-0.45-3.534c-0.028-0.244-0.249-0.422-0.493-0.392
	c-0.245,0.028-0.42,0.249-0.392,0.493c0.137,1.19,0.288,2.375,0.453,3.556C157.798,307.045,157.988,307.206,158.207,307.206z
	 M187.872,374.509c-0.154-0.193-0.434-0.224-0.626-0.07c-0.192,0.153-0.224,0.433-0.07,0.626c0.36,0.452,0.732,0.893,1.098,1.34
	c-0.113-0.603-0.222-1.206-0.33-1.808C187.919,374.567,187.895,374.538,187.872,374.509z M396.37,387.859
	c0.113,0,0.226-0.043,0.312-0.128c0.852-0.839,1.693-1.687,2.523-2.546c0.172-0.177,0.166-0.459-0.01-0.63
	c-0.177-0.171-0.46-0.166-0.63,0.01c-0.825,0.854-1.661,1.697-2.508,2.53c-0.176,0.173-0.178,0.455-0.005,0.63
	C396.139,387.815,396.255,387.859,396.37,387.859z M299.042,428.268c0.002,0,0.003,0,0.004,0c1.197-0.012,2.391-0.038,3.581-0.079
	c0.245-0.009,0.438-0.215,0.43-0.461c-0.01-0.245-0.219-0.432-0.461-0.43c-1.182,0.041-2.368,0.067-3.558,0.079
	c-0.246,0.003-0.444,0.204-0.441,0.45C298.599,428.072,298.798,428.268,299.042,428.268z M279.38,427.106
	c1.183,0.152,2.37,0.291,3.562,0.413c0.016,0.002,0.031,0.003,0.046,0.003c0.225,0,0.419-0.171,0.443-0.399
	c0.025-0.245-0.153-0.464-0.398-0.489c-1.184-0.123-2.363-0.259-3.539-0.412c-0.239-0.03-0.467,0.142-0.499,0.385
	C278.963,426.851,279.135,427.074,279.38,427.106z M289.193,428.027c1.19,0.07,2.383,0.126,3.581,0.166c0.005,0,0.01,0,0.015,0
	c0.239,0,0.437-0.19,0.445-0.431c0.008-0.245-0.184-0.452-0.43-0.46c-1.19-0.04-2.376-0.095-3.559-0.164
	c-0.239-0.022-0.456,0.173-0.471,0.419C288.76,427.802,288.947,428.013,289.193,428.027z M308.853,427.836
	c0.012,0,0.024-0.001,0.036-0.002c1.196-0.094,2.385-0.203,3.57-0.327c0.245-0.025,0.423-0.244,0.397-0.489
	c-0.025-0.245-0.25-0.427-0.489-0.397c-1.178,0.123-2.361,0.232-3.548,0.325c-0.245,0.019-0.429,0.233-0.409,0.479
	C308.429,427.658,308.624,427.836,308.853,427.836z M190.06,196.873c0.764-0.91,1.539-1.811,2.324-2.701
	c0.163-0.185,0.145-0.466-0.04-0.629c-0.183-0.162-0.466-0.145-0.629,0.04c-0.791,0.896-1.57,1.802-2.339,2.718
	c-0.158,0.188-0.133,0.469,0.055,0.628c0.083,0.07,0.185,0.104,0.286,0.104C189.845,197.032,189.972,196.978,190.06,196.873z
	 M318.616,426.723c0.022,0,0.044-0.002,0.066-0.005c1.185-0.176,2.364-0.368,3.539-0.574c0.243-0.043,0.405-0.273,0.362-0.515
	c-0.042-0.244-0.287-0.411-0.515-0.362c-1.168,0.204-2.34,0.395-3.516,0.571c-0.244,0.036-0.412,0.263-0.375,0.506
	C318.208,426.565,318.399,426.723,318.616,426.723z M183.735,370.263c0.091,0,0.183-0.028,0.262-0.085
	c0.199-0.145,0.243-0.424,0.098-0.622c-0.698-0.959-1.384-1.926-2.058-2.904c-0.14-0.203-0.418-0.253-0.62-0.114
	c-0.203,0.14-0.254,0.418-0.114,0.62c0.678,0.983,1.369,1.957,2.071,2.921C183.462,370.2,183.598,370.263,183.735,370.263z
	 M178.238,362.133c0.081,0,0.163-0.022,0.236-0.068c0.208-0.13,0.271-0.406,0.141-0.614c-0.629-1.003-1.246-2.016-1.85-3.037
	c-0.125-0.211-0.398-0.281-0.611-0.157c-0.211,0.126-0.281,0.399-0.156,0.611c0.608,1.028,1.229,2.046,1.862,3.056
	C177.944,362.059,178.089,362.133,178.238,362.133z M389.132,394.5c0.103,0,0.205-0.035,0.29-0.107
	c0.908-0.777,1.805-1.566,2.692-2.363c0.184-0.165,0.198-0.446,0.034-0.629c-0.165-0.185-0.448-0.199-0.629-0.034
	c-0.882,0.794-1.774,1.578-2.677,2.349c-0.187,0.16-0.209,0.441-0.049,0.628C388.881,394.447,389.007,394.5,389.132,394.5z
	 M373.373,406.193c0.083,0,0.165-0.023,0.24-0.07c1.006-0.643,2.003-1.298,2.992-1.967c0.204-0.137,0.258-0.414,0.119-0.619
	c-0.138-0.204-0.415-0.258-0.619-0.119c-0.982,0.663-1.972,1.315-2.972,1.953c-0.208,0.133-0.269,0.408-0.137,0.615
	C373.082,406.12,373.227,406.193,373.373,406.193z M381.453,400.621c0.092,0,0.185-0.029,0.265-0.088
	c0.959-0.711,1.909-1.435,2.849-2.17c0.194-0.151,0.229-0.432,0.077-0.625c-0.152-0.197-0.433-0.229-0.625-0.077
	c-0.935,0.73-1.878,1.449-2.831,2.156c-0.198,0.146-0.239,0.426-0.092,0.623C381.183,400.559,381.318,400.621,381.453,400.621z
	 M364.93,411.185c0.072,0,0.145-0.017,0.213-0.054c1.048-0.572,2.088-1.156,3.119-1.753c0.213-0.123,0.286-0.396,0.163-0.608
	c-0.124-0.213-0.399-0.287-0.608-0.163c-1.026,0.593-2.059,1.174-3.1,1.74c-0.216,0.118-0.296,0.389-0.178,0.605
	C364.619,411.102,364.772,411.185,364.93,411.185z M337.789,422.469c0.042,0,0.084-0.006,0.127-0.018
	c1.148-0.34,2.289-0.696,3.423-1.065c0.234-0.077,0.362-0.328,0.286-0.561c-0.077-0.234-0.328-0.361-0.561-0.286
	c-1.128,0.367-2.262,0.72-3.402,1.058c-0.236,0.07-0.37,0.318-0.3,0.554C337.419,422.343,337.597,422.469,337.789,422.469z
	 M328.277,424.933c0.031,0,0.064-0.003,0.097-0.01c1.169-0.259,2.332-0.533,3.49-0.821c0.238-0.059,0.384-0.301,0.325-0.54
	c-0.06-0.239-0.301-0.384-0.54-0.325c-1.15,0.286-2.306,0.559-3.468,0.816c-0.24,0.053-0.392,0.292-0.339,0.532
	C327.888,424.792,328.073,424.933,328.277,424.933z M356.163,415.573c0.062,0,0.125-0.013,0.185-0.04
	c1.085-0.496,2.162-1.006,3.232-1.529c0.221-0.108,0.312-0.375,0.204-0.596c-0.109-0.222-0.378-0.311-0.596-0.204
	c-1.062,0.52-2.133,1.026-3.211,1.518c-0.224,0.103-0.322,0.367-0.22,0.591C355.832,415.477,355.994,415.573,356.163,415.573z
	 M347.103,419.341c0.052,0,0.105-0.009,0.157-0.029c1.12-0.42,2.234-0.855,3.341-1.302c0.228-0.092,0.339-0.352,0.246-0.58
	s-0.354-0.337-0.58-0.246c-1.1,0.446-2.207,0.876-3.32,1.295c-0.231,0.086-0.347,0.343-0.26,0.573
	C346.754,419.231,346.923,419.341,347.103,419.341z M411.168,369.573c-0.7,0.961-1.412,1.913-2.135,2.855
	c-0.15,0.196-0.113,0.475,0.082,0.625c0.081,0.063,0.177,0.092,0.272,0.092c0.133,0,0.265-0.06,0.353-0.174
	c0.584-0.761,1.155-1.532,1.724-2.305v-1.271C411.349,369.411,411.241,369.472,411.168,369.573z M167.43,340.711
	c-0.227,0.095-0.335,0.356-0.24,0.583c0.458,1.101,0.93,2.195,1.415,3.281c0.074,0.165,0.237,0.264,0.407,0.264
	c0.06,0,0.122-0.012,0.181-0.038c0.225-0.101,0.326-0.365,0.225-0.589c-0.482-1.08-0.951-2.167-1.407-3.261
	C167.919,340.723,167.657,340.619,167.43,340.711z M157.164,277.795c0.232,0,0.428-0.18,0.444-0.415
	c0.081-1.188,0.176-2.371,0.286-3.551c0.023-0.245-0.157-0.462-0.402-0.485c-0.242-0.023-0.462,0.157-0.485,0.403
	c-0.11,1.187-0.207,2.378-0.288,3.574c-0.017,0.245,0.169,0.458,0.415,0.475C157.143,277.794,157.153,277.795,157.164,277.795z
	 M170.615,226.2c-0.223-0.104-0.488-0.011-0.594,0.211c-0.514,1.081-1.015,2.169-1.503,3.265c-0.1,0.224,0.001,0.488,0.226,0.588
	c0.059,0.026,0.12,0.038,0.181,0.038c0.171,0,0.334-0.098,0.408-0.264c0.484-1.089,0.982-2.17,1.493-3.244
	C170.932,226.572,170.838,226.306,170.615,226.2z M266.765,149.164c-1.168,0.26-2.332,0.535-3.489,0.825
	c-0.239,0.06-0.384,0.302-0.324,0.54c0.051,0.203,0.232,0.338,0.432,0.338c0.036,0,0.072-0.004,0.108-0.013
	c1.15-0.287,2.306-0.56,3.467-0.82c0.24-0.054,0.391-0.292,0.338-0.532C267.243,149.262,267.006,149.111,266.765,149.164z
	 M156.431,283.584c-0.027,1.145-0.041,2.292-0.041,3.443v0.141c0,0.246,0.199,0.446,0.446,0.446c0.246,0,0.445-0.199,0.445-0.446
	v-0.141c0-1.144,0.014-2.285,0.041-3.422c0.006-0.246-0.189-0.45-0.435-0.456C156.637,283.136,156.437,283.338,156.431,283.584z
	 M257.226,151.646c-1.147,0.341-2.288,0.698-3.423,1.068c-0.234,0.076-0.362,0.328-0.285,0.562c0.061,0.188,0.236,0.307,0.424,0.307
	c0.046,0,0.092-0.007,0.138-0.022c1.127-0.368,2.261-0.721,3.4-1.061c0.236-0.07,0.37-0.318,0.3-0.554
	C257.709,151.71,257.461,151.575,257.226,151.646z M171.484,349.633c-0.22,0.111-0.309,0.379-0.198,0.598
	c0.534,1.067,1.082,2.126,1.642,3.177c0.081,0.151,0.234,0.236,0.394,0.236c0.07,0,0.142-0.017,0.209-0.052
	c0.217-0.116,0.299-0.386,0.184-0.603c-0.557-1.044-1.101-2.096-1.633-3.156C171.972,349.612,171.705,349.524,171.484,349.633z
	 M175.182,217.48c-0.214-0.12-0.486-0.045-0.607,0.169c-0.589,1.042-1.165,2.091-1.727,3.15c-0.116,0.217-0.033,0.487,0.184,0.603
	c0.067,0.036,0.138,0.052,0.209,0.052c0.16,0,0.314-0.086,0.394-0.236c0.559-1.052,1.131-2.094,1.716-3.13
	C175.471,217.873,175.396,217.602,175.182,217.48z M238.8,158.58c-1.084,0.498-2.161,1.008-3.23,1.532
	c-0.221,0.108-0.312,0.376-0.204,0.596c0.078,0.158,0.236,0.249,0.401,0.249c0.066,0,0.133-0.014,0.196-0.045
	c1.062-0.521,2.132-1.028,3.209-1.522c0.224-0.103,0.322-0.367,0.219-0.591C239.288,158.576,239.024,158.479,238.8,158.58z
	 M157.182,297.435c0.01,0,0.021,0,0.031-0.001c0.245-0.017,0.431-0.23,0.413-0.476c-0.082-1.182-0.15-2.367-0.204-3.557
	c-0.011-0.246-0.223-0.446-0.465-0.425c-0.246,0.011-0.436,0.219-0.425,0.465c0.053,1.197,0.122,2.39,0.205,3.579
	C156.754,297.255,156.95,297.435,157.182,297.435z M272.916,147.937c-0.242,0.043-0.404,0.274-0.361,0.516
	c0.038,0.216,0.226,0.368,0.438,0.368c0.026,0,0.052-0.002,0.078-0.007c1.167-0.206,2.339-0.398,3.516-0.574
	c0.244-0.036,0.411-0.264,0.375-0.507c-0.037-0.243-0.259-0.406-0.507-0.375C275.269,147.536,274.09,147.729,272.916,147.937z
	 M230.009,162.992c-1.047,0.572-2.086,1.157-3.117,1.755c-0.213,0.124-0.286,0.396-0.162,0.609c0.083,0.142,0.232,0.222,0.386,0.222
	c0.076,0,0.153-0.019,0.223-0.06c1.024-0.594,2.057-1.175,3.097-1.744c0.216-0.118,0.295-0.389,0.177-0.604
	C230.496,162.953,230.224,162.873,230.009,162.992z M185.45,201.196c-0.727,0.949-1.442,1.908-2.146,2.876
	c-0.145,0.199-0.1,0.478,0.098,0.622c0.079,0.057,0.171,0.085,0.261,0.085c0.138,0,0.274-0.064,0.361-0.184
	c0.699-0.962,1.41-1.914,2.133-2.858c0.15-0.195,0.113-0.475-0.083-0.625C185.88,200.964,185.6,201.001,185.45,201.196z
	 M179.727,209.231c-0.66,0.999-1.307,2.005-1.942,3.02c-0.13,0.209-0.067,0.484,0.141,0.614c0.074,0.046,0.155,0.068,0.236,0.068
	c0.148,0,0.294-0.074,0.378-0.209c0.631-1.009,1.274-2.009,1.93-3.001c0.136-0.205,0.08-0.482-0.126-0.617
	C180.139,208.969,179.862,209.025,179.727,209.231z M166.671,235.224c-0.229-0.089-0.487,0.023-0.577,0.252
	c-0.437,1.115-0.861,2.236-1.27,3.365c-0.083,0.231,0.036,0.487,0.267,0.571c0.05,0.018,0.101,0.027,0.152,0.027
	c0.182,0,0.353-0.112,0.419-0.294c0.407-1.121,0.827-2.236,1.262-3.343C167.013,235.572,166.899,235.314,166.671,235.224z
	 M247.884,154.793c-1.12,0.422-2.233,0.857-3.339,1.306c-0.228,0.093-0.338,0.353-0.245,0.58c0.071,0.173,0.237,0.278,0.413,0.278
	c0.056,0,0.113-0.01,0.167-0.033c1.099-0.446,2.205-0.879,3.318-1.298c0.23-0.087,0.347-0.343,0.26-0.574
	C248.371,154.822,248.115,154.706,247.884,154.793z M302.362,145.857c-0.005,0-0.01,0-0.015,0c-0.239,0-0.438,0.19-0.445,0.431
	c-0.008,0.246,0.185,0.452,0.431,0.46c1.19,0.039,2.377,0.093,3.559,0.161c0.009,0,0.018,0.001,0.026,0.001
	c0.235,0,0.431-0.183,0.445-0.42c0.014-0.245-0.173-0.456-0.418-0.47C304.753,145.95,303.559,145.897,302.362,145.857z
	 M312.194,146.521c-0.24-0.018-0.463,0.152-0.488,0.398c-0.025,0.245,0.152,0.463,0.398,0.489c1.183,0.121,2.363,0.257,3.539,0.408
	c0.019,0.002,0.038,0.003,0.057,0.003c0.22,0,0.412-0.164,0.441-0.389c0.031-0.244-0.141-0.467-0.385-0.499
	C314.573,146.78,313.386,146.643,312.194,146.521z M331.605,149.891c-0.245-0.059-0.48,0.087-0.539,0.326s0.087,0.48,0.325,0.539
	c1.155,0.285,2.304,0.584,3.448,0.898c0.04,0.01,0.079,0.016,0.118,0.016c0.196,0,0.375-0.13,0.43-0.328
	c0.065-0.237-0.075-0.483-0.311-0.548C333.923,150.479,332.766,150.178,331.605,149.891z M321.958,147.866
	c-0.237-0.043-0.473,0.121-0.514,0.363c-0.043,0.242,0.12,0.473,0.363,0.515c1.172,0.203,2.34,0.422,3.503,0.654
	c0.029,0.006,0.058,0.009,0.088,0.009c0.208,0,0.393-0.146,0.436-0.358c0.049-0.241-0.108-0.476-0.35-0.524
	C324.314,148.29,323.139,148.071,321.958,147.866z M282.676,146.563c-0.245,0.026-0.422,0.245-0.396,0.49
	c0.024,0.229,0.217,0.399,0.442,0.399c0.016,0,0.031-0.001,0.047-0.003c1.178-0.124,2.36-0.233,3.548-0.328
	c0.245-0.02,0.428-0.234,0.409-0.48c-0.02-0.245-0.229-0.427-0.48-0.409C285.051,146.328,283.861,146.438,282.676,146.563z
	 M292.508,145.872c-0.246,0.009-0.439,0.215-0.43,0.461c0.008,0.241,0.206,0.43,0.445,0.43c0.006,0,0.011,0,0.016,0
	c1.183-0.042,2.369-0.07,3.559-0.083c0.246-0.003,0.443-0.204,0.441-0.45c-0.003-0.246-0.192-0.404-0.45-0.441
	C294.891,145.801,293.698,145.829,292.508,145.872z M164.008,331.517c-0.233,0.078-0.359,0.331-0.281,0.564
	c0.382,1.135,0.777,2.263,1.186,3.384c0.066,0.18,0.237,0.292,0.419,0.292c0.051,0,0.102-0.009,0.153-0.027
	c0.231-0.084,0.35-0.34,0.266-0.572c-0.407-1.114-0.8-2.234-1.179-3.362C164.494,331.564,164.242,331.44,164.008,331.517z
	 M214.047,240.222l-3.808-0.148c-0.002-0.002-0.005-0.003-0.008-0.005c1.6,6.514,2.654,13.054,3.388,19.655
	c0.93,2.066,1.791,4.173,2.577,6.327c0.025,0.068,0.052,0.136,0.077,0.204c0.349,0.963,0.679,1.936,0.998,2.917
	c0.049,0.151,0.104,0.3,0.152,0.451c0.356,1.114,0.694,2.239,1.01,3.377c0.284-1.326,0.541-2.652,0.788-3.979
	c0.1-0.54,0.196-1.081,0.289-1.621c0.129-0.74,0.248-1.48,0.366-2.22c0.276-1.758,0.527-3.516,0.735-5.274
	c0.001-0.005,0.001-0.01,0.002-0.014c-1.79-6.961-4.001-13.872-6.479-20.708L214.047,240.222z M314.187,338.084v0.589v0.662h0.146
	h2.718h23.483h0.004h23.353h2.784h0.057v-0.662v-0.589h-26.197H314.187z M338.185,267.668c0-1.254,1.02-2.274,2.274-2.274l0,0
	c1.254,0,2.274,1.02,2.274,2.274s-1.02,2.274-2.274,2.274l0,0C339.206,269.942,338.185,268.922,338.185,267.668z M339.268,267.668
	c0,0.657,0.535,1.191,1.191,1.191l0,0c0.657,0,1.191-0.534,1.191-1.191s-0.534-1.191-1.191-1.191l0,0
	C339.802,266.476,339.268,267.011,339.268,267.668z M294.905,317.618c0.815,6.286,6.02,11.135,12.319,11.135
	s11.504-4.848,12.319-11.135c0.116-0.897-0.368-1.725-1.006-1.725h-3.039h-8.273h-8.274h-3.039
	C295.273,315.893,294.789,316.721,294.905,317.618z"></path>
<path id="color_x5F_1" fill="#2e56a6" d="M105.996,361.342c-9.42-23.821-14.361-49.446-14.361-75.833
	c0-38.43,10.465-75.247,30.024-107.218c0.196,0.135,0.399,0.262,0.611,0.379c-19.046,31.147-30.035,67.733-30.035,106.839
	c0,26.689,5.12,52.203,14.424,75.617C106.431,361.19,106.21,361.261,105.996,361.342z M297.638,80.107
	c80.363,0,150.083,46.398,183.81,113.806c0.216-0.105,0.442-0.199,0.675-0.285c-9.81-19.65-22.836-37.801-38.819-53.784
	c-38.909-38.909-90.641-60.337-145.666-60.337s-106.757,21.428-145.666,60.337c-7.67,7.67-14.649,15.844-20.93,24.438
	c0.199,0.139,0.388,0.286,0.569,0.442C168.997,113.476,229.489,80.107,297.638,80.107z M113.469,376.386
	c-0.203,0.127-0.416,0.243-0.636,0.351c9.846,19.901,22.979,38.278,39.139,54.437c10.676,10.676,22.323,20.027,34.733,27.988
	c0.066-0.254,0.139-0.504,0.207-0.757C155.611,438.287,130.086,409.925,113.469,376.386z M228.01,478.737
	c-0.01,0.247-0.02,0.495-0.03,0.743c13.372,4.79,27.271,8.19,41.519,10.124v-0.645C255.147,486.983,241.263,483.528,228.01,478.737z
	 M273.679,489.515c-0.06-0.007-0.12-0.017-0.18-0.024v0.617c0.042,0.005,0.085,0.011,0.127,0.016
	C273.637,489.92,273.655,489.717,273.679,489.515z M443.304,431.175c38.908-38.908,60.336-90.641,60.336-145.665
	c0-26.639-5.036-52.5-14.633-76.514c-0.206,0.105-0.419,0.201-0.64,0.288c9.458,23.581,14.673,49.305,14.673,76.226
	c0,69.453-34.656,130.958-87.577,168.151v0.886C425.309,447.652,434.627,439.851,443.304,431.175z M289.801,490.762
	c-0.003,0.196-0.01,0.392-0.024,0.588c2.613,0.097,5.232,0.162,7.861,0.162c41.105,0,80.369-11.962,113.825-34.232v-0.878
	c-32.603,21.787-71.754,34.51-113.825,34.51C295.014,490.912,292.402,490.86,289.801,490.762z M92.666,527.569
	c-5.22-9.962-10.418-19.934-15.952-29.72c-0.479,2.686-0.663,5.403-0.594,8.111c2.156,4.339,4.794,8.48,6.863,12.841
	c1.504,3.169,2.941,6.369,4.354,9.58h5.757C92.951,528.11,92.808,527.84,92.666,527.569z M94.272,470.149
	c-1.559,1.179-3.045,2.452-4.448,3.809c1.054,3.21,2.114,6.418,3.266,9.595c0.68,1.877-2.309,2.678-2.982,0.822
	c-0.948-2.613-1.83-5.249-2.702-7.887c-0.529,0.591-1.055,1.187-1.554,1.802c6.19,16.46,11.375,33.265,16.506,50.091h1.129
	C99.189,509.214,96.303,489.736,94.272,470.149z M83.673,481.203c-1.213,1.76-2.298,3.604-3.248,5.514
	c2.166,4.088,4.322,8.182,6.307,12.36c0.85,1.79-1.817,3.357-2.67,1.561c-1.658-3.49-3.43-6.921-5.225-10.34
	c-0.401,1.035-0.764,2.086-1.081,3.153c6.496,11.304,12.498,22.879,18.558,34.425c0.089,0.169,0.18,0.336,0.269,0.505h2.574
	C94.333,512.537,89.439,496.719,83.673,481.203z M122.305,460.654c-0.211-0.004-0.421-0.016-0.632-0.016
	c-3.675-0.008-7.317,0.49-10.85,1.417c-0.891,12.198-1.377,24.402-0.235,36.64c0.185,1.984-2.909,1.965-3.092,0
	c-1.112-11.918-0.68-23.806,0.166-35.685c-3.685,1.261-7.216,2.99-10.495,5.117c2.053,20.271,4.997,40.43,9.474,60.255h7.183
	C113.281,505.751,117.941,483.177,122.305,460.654z M145.043,512.474c3.411-8.87,6.807-17.8,10.98-26.345
	c0.997-2.041,2.025-4.084,3.034-6.139c-0.475-0.625-0.964-1.238-1.469-1.839c-1.394,2.611-2.764,5.235-4.089,7.884
	c-4.557,9.109-8.694,18.403-12.833,27.706c-2.083,4.683-4.458,9.595-6.72,14.639h5.19
	C141.056,523.061,143.013,517.754,145.043,512.474z M136.508,484.409c2.23-6.001,4.611-11.94,7.129-17.818
	c-2.478-1.389-5.076-2.547-7.75-3.474c-3.117,9.239-5.858,18.586-7.523,28.236c-0.338,1.96-3.317,1.124-2.982-0.822
	c1.671-9.683,4.425-19.063,7.556-28.332c-2.487-0.679-5.029-1.155-7.604-1.387c-4.385,22.466-9.06,45.014-8.461,67.57h5.906
	C126.015,513.344,131.234,498.599,136.508,484.409z M137.45,513.402c4.625-10.326,9.188-20.666,14.304-30.763
	c1.18-2.329,2.408-4.63,3.651-6.922c-0.687-0.718-1.396-1.415-2.125-2.09c-2.235,3.608-4.475,7.213-6.853,10.731
	c-1.109,1.642-3.787,0.092-2.67-1.561c2.485-3.678,4.822-7.45,7.159-11.222c-1.478-1.208-3.021-2.337-4.623-3.372
	c-2.4,5.619-4.673,11.295-6.804,17.029c-5.172,13.916-10.323,28.392-13.552,43.15h4.67
	C132.887,523.223,135.302,518.198,137.45,513.402z M168.431,508.094c0.053-3.658-0.314-7.322-1.155-10.91
	c-0.039-0.164-0.086-0.326-0.127-0.49c-4.423,5.045-8.256,10.467-10.487,16.754c-0.662,1.865-3.648,1.057-2.982-0.822
	c2.614-7.367,7.245-13.561,12.482-19.338c-1.238-3.674-2.96-7.171-5.076-10.418c-4.573,9.307-8.55,18.781-12.299,28.453
	c-2.194,5.66-4.302,11.352-6.367,17.059h9.064C156.738,521.325,162.604,514.632,168.431,508.094z M392.88,505.96
	c2.156,4.339,4.794,8.48,6.863,12.841c1.191,2.511,2.34,5.042,3.471,7.58h5.589c-5.011-9.566-10.015-19.134-15.329-28.532
	C392.995,500.535,392.812,503.252,392.88,505.96z M406.584,473.958c1.054,3.21,2.114,6.418,3.266,9.595
	c0.68,1.877-2.309,2.678-2.982,0.822c-0.948-2.613-1.83-5.249-2.702-7.887c-0.529,0.591-1.055,1.187-1.554,1.802
	c3.172,8.435,6.077,16.961,8.85,25.533V474.08c-0.144-1.31-0.295-2.619-0.431-3.931
	C409.474,471.328,407.988,472.602,406.584,473.958z M415.463,516.476c1.23,3.964,2.445,7.934,3.656,11.905h1.129
	c-1.841-8.208-3.422-16.473-4.785-24.781V516.476z M397.186,486.716c2.166,4.088,4.322,8.182,6.307,12.36
	c0.85,1.79-1.817,3.357-2.67,1.561c-1.658-3.49-3.43-6.921-5.225-10.34c-0.401,1.035-0.764,2.086-1.081,3.153
	c5.92,10.301,11.429,20.828,16.946,31.352v-10.891c-3.436-10.987-7.021-21.921-11.029-32.708
	C399.221,482.963,398.136,484.807,397.186,486.716z M415.463,528.381h0.455c-0.152-0.498-0.303-0.996-0.455-1.494V528.381z
	 M423.402,528.381h7.183c-0.543-22.63,4.117-45.204,8.481-67.727c-0.211-0.004-0.421-0.016-0.632-0.016
	c-3.675-0.008-7.317,0.49-10.85,1.417c-0.891,12.198-1.377,24.402-0.235,36.64c0.185,1.984-2.909,1.965-3.092,0
	c-1.112-11.918-0.68-23.806,0.166-35.685c-3.12,1.068-6.12,2.49-8.96,4.186v14.583C417.385,497.445,419.931,513.013,423.402,528.381
	z M461.804,512.474c3.411-8.87,6.807-17.8,10.98-26.345c0.997-2.041,2.025-4.084,3.034-6.139c-0.475-0.625-0.964-1.238-1.469-1.839
	c-1.394,2.611-2.764,5.235-4.089,7.884c-4.557,9.109-8.694,18.403-12.833,27.706c-2.083,4.683-4.458,9.595-6.72,14.639h5.19
	C457.817,523.061,459.773,517.754,461.804,512.474z M453.269,484.409c2.23-6.001,4.611-11.94,7.129-17.818
	c-2.478-1.389-5.076-2.547-7.75-3.474c-3.117,9.239-5.858,18.586-7.523,28.236c-0.338,1.96-3.317,1.124-2.982-0.822
	c1.671-9.683,4.425-19.063,7.556-28.332c-2.487-0.679-5.029-1.155-7.604-1.387c-4.385,22.466-9.06,45.014-8.461,67.57h5.906
	C442.776,513.344,447.995,498.599,453.269,484.409z M454.211,513.402c4.625-10.326,9.188-20.666,14.304-30.763
	c1.18-2.329,2.408-4.63,3.651-6.922c-0.687-0.718-1.396-1.415-2.125-2.09c-2.235,3.608-4.475,7.213-6.853,10.731
	c-1.109,1.642-3.787,0.092-2.67-1.561c2.485-3.678,4.822-7.45,7.159-11.222c-1.478-1.208-3.021-2.337-4.623-3.372
	c-2.4,5.619-4.673,11.295-6.804,17.029c-5.172,13.916-10.323,28.392-13.552,43.15h4.67
	C449.647,523.223,452.063,518.198,454.211,513.402z M485.192,508.094c0.053-3.658-0.314-7.322-1.155-10.91
	c-0.039-0.164-0.086-0.326-0.127-0.49c-4.423,5.045-8.257,10.467-10.487,16.754c-0.662,1.865-3.648,1.057-2.982-0.822
	c2.614-7.367,7.245-13.561,12.482-19.338c-1.238-3.674-2.96-7.171-5.076-10.418c-4.573,9.307-8.55,18.781-12.299,28.453
	c-2.194,5.66-4.302,11.352-6.367,17.059h9.064C473.499,521.325,479.364,514.632,485.192,508.094z M297.409,284.081
	c-0.023-0.026-0.048-0.047-0.071-0.073l0.253-7.657c0.019-0.002,0.039-0.002,0.058-0.004c0-0.012,0-0.024,0-0.036
	c-1.773-0.042-3.683-0.051-5.676-0.038l-0.376,10.227C293.548,285.726,295.487,284.924,297.409,284.081z M195.357,232.215
	c0.937,1.042,1.86,2.092,2.758,3.159c0.03,0.036,0.061,0.071,0.091,0.106c0.955,1.138,1.882,2.296,2.79,3.464
	c0.157,0.203,0.313,0.406,0.469,0.61c1.834,2.392,3.568,4.848,5.192,7.374c0.071,0.111,0.141,0.222,0.211,0.333
	c1.668,2.618,3.22,5.309,4.641,8.08c0.018,0.034,0.035,0.069,0.052,0.104c0.719,1.406,1.406,2.831,2.057,4.278
	c-0.734-6.601-1.788-13.141-3.388-19.655c0.002,0.002,0.005,0.003,0.008,0.005c-0.201-2.402,0-4.18-0.886-6.372
	c-3.373-3.143-6.531-6.278-10.888-7.331c-0.343-0.083-0.691-0.157-1.05-0.213l-0.083,1.509c-1.928,0.006-3.828,0.195-5.674,0.589
	c1.016,1.042,2.005,2.101,2.982,3.168C194.881,231.687,195.119,231.951,195.357,232.215z M214.134,239.184
	c2.479,6.836,4.69,13.747,6.479,20.708l0,0c0.089-0.753,0.164-1.505,0.24-2.258c0.056-0.564,0.108-1.129,0.157-1.693
	c0.069-0.795,0.135-1.591,0.188-2.386c0.067-1.013,0.123-2.027,0.165-3.04c0.023-0.561,0.038-1.121,0.053-1.682
	c0.025-0.955,0.039-1.91,0.04-2.865c0-0.353,0.008-0.705,0.005-1.058c-0.012-1.298-0.052-2.595-0.11-3.893
	c-0.016-0.36-0.035-0.721-0.055-1.081c-0.075-1.363-0.165-2.727-0.294-4.09c-1.989-1.41-4.1-2.65-6.272-3.737L214.134,239.184z
	 M248.809,331.032l3.914-6.585c0.018,0.008,0.035,0.017,0.053,0.025c0.006-0.011,0.012-0.021,0.017-0.031
	c-1.533-0.892-3.202-1.82-4.954-2.771l-5.261,8.778c2.082,0.262,4.168,0.495,6.258,0.683
	C248.828,331.097,248.816,331.066,248.809,331.032z M382.058,315.893h-8.274h-8.273h-3.039c-0.638,0-1.122,0.828-1.006,1.725
	c0.815,6.286,6.02,11.135,12.319,11.135s11.504-4.848,12.319-11.135c0.116-0.897-0.368-1.725-1.006-1.725H382.058z"></path>
</svg>