<?xml version="1.0" encoding="UTF-8" standalone="no"?>
<!-- Created with Inkscape (http://www.inkscape.org/) -->

<svg
   width="202.88989mm"
   height="181.68132mm"
   viewBox="0 0 202.88989 181.68132"
   version="1.1"
   id="svg130"
   inkscape:version="1.1 (c68e22c387, 2021-05-23)"
   sodipodi:docname="scenes01.svg"
   xmlns:inkscape="http://www.inkscape.org/namespaces/inkscape"
   xmlns:sodipodi="http://sodipodi.sourceforge.net/DTD/sodipodi-0.dtd"
   xmlns="http://www.w3.org/2000/svg"
   xmlns:svg="http://www.w3.org/2000/svg">
  <sodipodi:namedview
     id="namedview132"
     pagecolor="#505050"
     bordercolor="#eeeeee"
     borderopacity="1"
     inkscape:pageshadow="0"
     inkscape:pageopacity="0"
     inkscape:pagecheckerboard="0"
     inkscape:document-units="mm"
     showgrid="false"
     showguides="false"
     inkscape:zoom="0.49887767"
     inkscape:cx="456.02362"
     inkscape:cy="464.04162"
     inkscape:window-width="1366"
     inkscape:window-height="745"
     inkscape:window-x="-8"
     inkscape:window-y="-8"
     inkscape:window-maximized="1"
     inkscape:current-layer="layer1"
     fit-margin-top="0"
     fit-margin-left="0"
     fit-margin-right="0"
     fit-margin-bottom="0" />
  <defs
     id="defs127">
    <linearGradient
       id="paint0_linear"
       x1="634.203"
       y1="-7.6635199"
       x2="918.03998"
       y2="1414.72"
       gradientUnits="userSpaceOnUse">
      <stop
         stop-color="white"
         id="stop296" />
      <stop
         offset="1"
         stop-color="#94B9FF"
         id="stop298" />
    </linearGradient>
    <linearGradient
       id="paint1_linear"
       x1="667.724"
       y1="234.22099"
       x2="695.245"
       y2="662.63702"
       gradientUnits="userSpaceOnUse">
      <stop
         stop-color="white"
         id="stop301" />
      <stop
         offset="1"
         stop-color="#94B9FF"
         id="stop303" />
    </linearGradient>
    <linearGradient
       id="paint2_linear"
       x1="749.48199"
       y1="453.685"
       x2="794.49902"
       y2="826.44202"
       gradientUnits="userSpaceOnUse">
      <stop
         stop-color="white"
         id="stop306" />
      <stop
         offset="1"
         stop-color="#94B9FF"
         id="stop308" />
    </linearGradient>
    <linearGradient
       id="paint3_linear"
       x1="652.91101"
       y1="643.21899"
       x2="660.84003"
       y2="862.771"
       gradientUnits="userSpaceOnUse">
      <stop
         stop-color="white"
         id="stop311" />
      <stop
         offset="1"
         stop-color="#94B9FF"
         id="stop313" />
    </linearGradient>
    <linearGradient
       id="paint4_linear"
       x1="997.51599"
       y1="202.645"
       x2="1004.28"
       y2="291.22101"
       gradientUnits="userSpaceOnUse">
      <stop
         stop-color="white"
         id="stop316" />
      <stop
         offset="1"
         stop-color="#94B9FF"
         id="stop318" />
    </linearGradient>
    <clipPath
       id="clip0">
      <rect
         width="843.53003"
         height="837.00702"
         fill="#ffffff"
         transform="translate(245,93)"
         id="rect321"
         x="0"
         y="0" />
    </clipPath>
  </defs>
  <g
     inkscape:label="Capa 1"
     inkscape:groupmode="layer"
     id="layer1"
     style="display:inline"
     transform="translate(-3.3402179,-67.869941)">
    <g
       style="fill:none"
       id="g428"
       transform="matrix(0.26458333,0,0,0.26458333,-87.610713,7.1994064)">
      <g
         clip-path="url(#clip0)"
         id="g294"
         transform="translate(22.049494,-14.031496)">
        <g
           id="g646"
           transform="matrix(0.91857533,0,0,0.91857533,96.651058,157.90995)">
          <path
             d="m 681.725,839.623 c 198.082,0 358.655,-160.577 358.655,-358.66 0,-198.082 -160.573,-358.659 -358.655,-358.659 -198.082,0 -358.66,160.577 -358.66,358.659 0,198.083 160.578,358.66 358.66,358.66 z"
             stroke="#d1e8f7"
             stroke-width="1.91649"
             stroke-miterlimit="10"
             id="path136" />
          <path
             d="m 389.948,283.002 c 6.977,0 12.633,-5.656 12.633,-12.633 0,-6.977 -5.656,-12.632 -12.633,-12.632 -6.976,0 -12.632,5.655 -12.632,12.632 0,6.977 5.656,12.633 12.632,12.633 z"
             fill="#febb94"
             id="path138" />
          <path
             d="m 1040.38,507.255 c 6.98,0 12.64,-5.655 12.64,-12.632 0,-6.977 -5.66,-12.633 -12.64,-12.633 -6.97,0 -12.63,5.656 -12.63,12.633 0,6.977 5.66,12.632 12.63,12.632 z"
             fill="#5661ae"
             id="path140" />
          <path
             d="m 696.436,852.255 c 6.976,0 12.632,-5.656 12.632,-12.632 0,-6.977 -5.656,-12.633 -12.632,-12.633 -6.977,0 -12.633,5.656 -12.633,12.633 0,6.976 5.656,12.632 12.633,12.632 z"
             fill="#1c85e8"
             id="path142" />
          <path
             d="m 690.034,750.876 c 147.764,0 267.55,-119.786 267.55,-267.55 0,-147.765 -119.786,-267.551 -267.55,-267.551 -147.765,0 -267.551,119.786 -267.551,267.551 0,147.764 119.786,267.55 267.551,267.55 z"
             stroke="#d1e8f7"
             stroke-width="1.42966"
             stroke-miterlimit="10"
             id="path144" />
          <path
             d="m 952.998,546.643 c 5.204,0 9.423,-4.219 9.423,-9.423 0,-5.205 -4.219,-9.424 -9.423,-9.424 -5.205,0 -9.424,4.219 -9.424,9.424 0,5.204 4.219,9.423 9.424,9.423 z"
             fill="#febb94"
             id="path146" />
          <path
             d="m 441.885,593.296 c 5.205,0 9.424,-4.219 9.424,-9.424 0,-5.204 -4.219,-9.423 -9.424,-9.423 -5.204,0 -9.423,4.219 -9.423,9.423 0,5.205 4.219,9.424 9.423,9.424 z"
             fill="#5661ae"
             id="path148" />
          <path
             d="m 570.189,253.289 c 5.205,0 9.424,-4.219 9.424,-9.424 0,-5.204 -4.219,-9.423 -9.424,-9.423 -5.204,0 -9.423,4.219 -9.423,9.423 0,5.205 4.219,9.424 9.423,9.424 z"
             fill="#1c85e8"
             id="path150" />
          <path
             d="M 829.284,779.603 H 520.305 c -13.405,0 -23.227,-10.867 -21.938,-24.272 l 52.745,-548.695 c 1.288,-13.405 13.199,-24.272 26.604,-24.272 h 308.979 c 13.405,0 23.227,10.867 21.938,24.272 l -52.745,548.695 c -1.288,13.405 -13.2,24.272 -26.604,24.272 z"
             fill="#1c85e8"
             id="path152" />
          <path
             d="M 807.508,779.603 H 498.529 c -13.404,0 -23.226,-10.867 -21.938,-24.272 l 52.745,-548.695 c 1.289,-13.405 13.2,-24.272 26.605,-24.272 H 864.92 c 13.404,0 23.226,10.867 21.938,24.272 l -52.745,548.695 c -1.289,13.405 -13.2,24.272 -26.605,24.272 z"
             fill="url(#paint0_linear)"
             id="path154"
             style="fill:url(#paint0_linear)" />
          <path
             d="M 795.799,761.362 H 513.746 c -12.423,0 -21.526,-10.07 -20.332,-22.493 l 49.58,-515.771 c 1.195,-12.423 12.233,-22.493 24.656,-22.493 h 282.053 c 12.423,0 21.526,10.07 20.332,22.493 l -49.58,515.771 c -1.195,12.423 -12.233,22.493 -24.656,22.493 z"
             fill="#ffffff"
             id="path156" />
          <path
             d="m 818.418,435.237 -302.571,-0.269 c -1.236,0.034 -2.465,-0.197 -3.605,-0.676 -1.139,-0.479 -2.164,-1.196 -3.004,-2.103 -0.841,-0.906 -1.478,-1.982 -1.87,-3.154 -0.392,-1.173 -0.529,-2.416 -0.402,-3.646 L 523.278,244.26 c 0.295,-2.614 1.537,-5.029 3.491,-6.79 1.953,-1.762 4.483,-2.747 7.113,-2.772 l 302.571,0.269 c 1.236,-0.033 2.465,0.197 3.605,0.676 1.139,0.48 2.164,1.196 3.004,2.103 0.841,0.907 1.478,1.982 1.87,3.155 0.392,1.172 0.529,2.415 0.402,3.645 l -16.312,181.13 c -0.295,2.613 -1.537,5.028 -3.491,6.79 -1.953,1.761 -4.483,2.747 -7.113,2.771 z"
             fill="url(#paint1_linear)"
             id="path158"
             style="fill:url(#paint1_linear)" />
          <path
             d="M 808.891,630.406 H 681.006 c -0.943,0.019 -1.88,-0.166 -2.746,-0.54 -0.866,-0.374 -1.641,-0.93 -2.274,-1.63 -0.632,-0.7 -1.107,-1.527 -1.392,-2.427 -0.286,-0.899 -0.374,-1.849 -0.261,-2.785 l 15.528,-161.536 c 0.224,-2.003 1.168,-3.856 2.657,-5.214 1.489,-1.358 3.42,-2.128 5.435,-2.168 h 127.886 c 0.943,-0.019 1.879,0.165 2.745,0.54 0.866,0.374 1.641,0.93 2.274,1.63 0.633,0.7 1.108,1.527 1.393,2.426 0.285,0.9 0.374,1.85 0.26,2.786 l -15.528,161.536 c -0.224,2.002 -1.168,3.855 -2.657,5.213 -1.488,1.358 -3.42,2.129 -5.435,2.169 z"
             fill="url(#paint2_linear)"
             id="path160"
             style="fill:url(#paint2_linear)" />
          <path
             d="m 778.403,541.294 c 14.423,-13.745 15.992,-35.509 3.506,-48.609 -12.487,-13.101 -34.3,-12.578 -48.722,1.167 -14.422,13.746 -15.992,35.509 -3.505,48.61 12.486,13.101 34.299,12.578 48.721,-1.168 z"
             stroke="#ef6a77"
             stroke-width="11.6898"
             stroke-miterlimit="10"
             id="path162" />
          <path
             d="m 739.583,549.348 c -11.964,-5.166 -19.547,-17.447 -18.17,-31.775 1.825,-18.989 18.698,-34.382 37.687,-34.382"
             stroke="#ffffff"
             stroke-width="11.6898"
             stroke-miterlimit="10"
             stroke-linecap="round"
             id="path164" />
          <path
             d="m 736.744,578.904 h 26.31"
             stroke="#ffffff"
             stroke-width="5.98374"
             stroke-miterlimit="10"
             stroke-linecap="round"
             id="path166" />
          <path
             d="M 733.879,608.701 H 760.19"
             stroke="#ffffff"
             stroke-width="5.98374"
             stroke-miterlimit="10"
             stroke-linecap="round"
             id="path168" />
          <path
             opacity="0.4"
             d="M 721.296,593.634 H 775.67"
             stroke="#ffffff"
             stroke-width="5.98374"
             stroke-miterlimit="10"
             stroke-linecap="round"
             id="path170" />
          <path
             d="M 652.495,630.406 H 524.61 c -0.943,0.019 -1.88,-0.166 -2.746,-0.54 -0.865,-0.374 -1.641,-0.93 -2.274,-1.63 -0.632,-0.7 -1.107,-1.527 -1.392,-2.427 -0.286,-0.899 -0.374,-1.849 -0.261,-2.785 l 15.528,-161.536 c 0.224,-2.003 1.168,-3.856 2.657,-5.214 1.489,-1.358 3.42,-2.128 5.435,-2.168 h 127.886 c 0.943,-0.019 1.879,0.165 2.745,0.54 0.866,0.374 1.641,0.93 2.274,1.63 0.633,0.7 1.108,1.527 1.393,2.426 0.285,0.9 0.374,1.85 0.26,2.786 l -15.528,161.536 c -0.224,2.002 -1.168,3.855 -2.657,5.213 -1.488,1.358 -3.42,2.129 -5.435,2.169 z"
             fill="#febb94"
             id="path172" />
          <path
             d="m 622.007,541.294 c 14.422,-13.745 15.991,-35.509 3.505,-48.609 -12.486,-13.101 -34.3,-12.578 -48.722,1.167 -14.422,13.746 -15.991,35.509 -3.505,48.61 12.486,13.101 34.3,12.578 48.722,-1.168 z"
             stroke="#ef6a77"
             stroke-width="11.6898"
             stroke-miterlimit="10"
             id="path174" />
          <path
             d="m 633.781,517.573 c -1.825,18.989 -18.698,34.382 -37.687,34.382 -18.989,0 -32.903,-15.393 -31.077,-34.382 1.825,-18.989 18.698,-34.382 37.687,-34.382"
             stroke="#ffffff"
             stroke-width="11.6898"
             stroke-miterlimit="10"
             stroke-linecap="round"
             id="path176" />
          <path
             d="m 580.348,578.904 h 26.31"
             stroke="#ffffff"
             stroke-width="5.98374"
             stroke-miterlimit="10"
             stroke-linecap="round"
             id="path178" />
          <path
             d="m 577.483,608.701 h 26.311"
             stroke="#ffffff"
             stroke-width="5.98374"
             stroke-miterlimit="10"
             stroke-linecap="round"
             id="path180" />
          <path
             opacity="0.4"
             d="m 564.9,593.634 h 54.374"
             stroke="#ffffff"
             stroke-width="5.98374"
             stroke-miterlimit="10"
             stroke-linecap="round"
             id="path182" />
          <path
             d="M 798.171,745.944 H 513.117 c -0.894,0.017 -1.781,-0.157 -2.601,-0.512 -0.821,-0.355 -1.556,-0.882 -2.156,-1.545 -0.599,-0.663 -1.049,-1.447 -1.32,-2.3 -0.27,-0.852 -0.354,-1.752 -0.247,-2.64 l 8.507,-88.486 c 0.212,-1.898 1.107,-3.655 2.518,-4.942 1.411,-1.287 3.241,-2.017 5.151,-2.055 h 285.053 c 0.894,-0.018 1.781,0.157 2.602,0.512 0.82,0.355 1.555,0.881 2.155,1.545 0.599,0.663 1.049,1.447 1.32,2.299 0.27,0.853 0.354,1.753 0.247,2.641 l -8.506,88.486 c -0.213,1.898 -1.107,3.654 -2.518,4.941 -1.411,1.288 -3.242,2.018 -5.151,2.056 z"
             fill="url(#paint3_linear)"
             id="path184"
             style="fill:url(#paint3_linear)" />
          <path
             d="m 532.968,725.427 4.021,-41.832"
             stroke="#ffffff"
             stroke-width="11.6898"
             stroke-miterlimit="10"
             stroke-linecap="round"
             id="path186" />
          <path
             d="m 562.473,696.123 -2.817,29.304"
             stroke="#ffffff"
             stroke-width="11.6898"
             stroke-miterlimit="10"
             stroke-linecap="round"
             id="path188" />
          <path
             d="m 588.199,706.131 -1.855,19.296"
             stroke="#ffffff"
             stroke-width="11.6898"
             stroke-miterlimit="10"
             stroke-linecap="round"
             id="path190" />
          <path
             d="m 618.098,672.724 -5.066,52.703"
             stroke="#ffffff"
             stroke-width="11.6898"
             stroke-miterlimit="10"
             stroke-linecap="round"
             id="path192" />
          <path
             d="m 641.575,706.131 -1.855,19.296"
             stroke="#ffffff"
             stroke-width="11.6898"
             stroke-miterlimit="10"
             stroke-linecap="round"
             id="path194" />
          <path
             d="m 671.251,675.052 -4.843,50.375"
             stroke="#ffffff"
             stroke-width="11.6898"
             stroke-miterlimit="10"
             stroke-linecap="round"
             id="path196" />
          <path
             d="m 695.107,704.511 -2.011,20.916"
             stroke="#ffffff"
             stroke-width="11.6898"
             stroke-miterlimit="10"
             stroke-linecap="round"
             id="path198" />
          <path
             d="m 720.855,714.285 -1.071,11.142"
             stroke="#ffffff"
             stroke-width="11.6898"
             stroke-miterlimit="10"
             stroke-linecap="round"
             id="path200" />
          <path
             d="m 750.493,683.595 -4.021,41.832"
             stroke="#ffffff"
             stroke-width="11.6898"
             stroke-miterlimit="10"
             stroke-linecap="round"
             id="path202" />
          <path
             d="m 778.712,667.667 -5.552,57.76"
             stroke="#ffffff"
             stroke-width="11.6898"
             stroke-miterlimit="10"
             stroke-linecap="round"
             id="path204" />
          <path
             d="m 540.355,407.462 16.02,25.095 c 0.723,1.133 0.969,2.505 0.685,3.818 -0.285,1.314 -1.076,2.461 -2.203,3.194 l -2.589,1.682 c -4.334,2.816 -9.543,3.963 -14.659,3.228 -5.116,-0.736 -9.791,-3.304 -13.156,-7.228 L 503.194,412.46 Z"
             fill="#ffccb3"
             id="path206" />
          <path
             d="m 528.131,417.119 c 0,0 5.932,20.368 17.849,26.902 3.094,-1.198 6.067,-2.689 8.877,-4.452 l -13.363,-22.45"
             fill="#fcba9f"
             id="path208" />
          <path
             d="m 254.064,508.715 62.925,-30.155 c 5.929,-2.841 10.942,-7.289 14.47,-12.837 l 60.788,-95.624 c 3.784,-5.953 9.273,-10.63 15.752,-13.421 l 87.553,-37.72 -18.744,141.749 -0.33,5.236 c 0,0 -23.157,59.976 -79.915,81.765 l -90.745,55.503 z"
             fill="#ffccb3"
             id="path210" />
          <path
             d="m 322.543,475.233 c 0,0 29.766,74.296 74.02,72.475 l -28.255,17.282 c 0,0 -95.903,-17.79 -60.004,-82.415 z"
             fill="#fcba9f"
             id="path212" />
          <path
             d="m 482,345.191 c 0,0 -30.956,18.758 -29.314,62.271 l 37.175,-13.892 z"
             fill="#fcba9f"
             id="path214" />
          <path
             d="m 559.764,407.462 16.02,25.095 c 0.723,1.133 0.969,2.505 0.685,3.818 -0.284,1.314 -1.076,2.461 -2.203,3.194 l -2.589,1.682 c -4.334,2.816 -9.543,3.963 -14.659,3.228 -5.116,-0.736 -9.791,-3.304 -13.156,-7.228 L 522.604,412.46 Z"
             fill="#ffccb3"
             id="path216" />
          <path
             d="m 796.596,417.358 -302.571,-0.269 c -1.236,0.033 -2.465,-0.197 -3.604,-0.677 -1.14,-0.479 -2.164,-1.196 -3.005,-2.102 -0.841,-0.907 -1.478,-1.982 -1.87,-3.155 -0.392,-1.173 -0.529,-2.415 -0.402,-3.645 l 16.312,-181.13 c 0.296,-2.614 1.537,-5.029 3.491,-6.79 1.953,-1.761 4.483,-2.747 7.114,-2.772 l 302.57,0.27 c 1.236,-0.034 2.465,0.197 3.605,0.676 1.139,0.479 2.164,1.196 3.004,2.102 0.841,0.907 1.478,1.983 1.87,3.155 0.392,1.173 0.529,2.416 0.403,3.645 l -16.312,181.13 c -0.296,2.614 -1.538,5.029 -3.491,6.79 -1.954,1.761 -4.484,2.747 -7.114,2.772 z"
             fill="#1c85e8"
             id="path218" />
          <path
             d="m 514.058,324.275 c 0,0 27.16,-5.493 34.47,7.252 7.309,12.744 13.612,36.678 33.06,33.593 19.448,-3.086 34.335,-65.66 53.454,-65.089 19.12,0.571 12.379,41.553 33.19,42.125 20.81,0.572 17.109,-22.892 30.979,-22.238 16.825,0.793 10.553,49.413 32.491,49.986 21.938,0.573 25.518,-64.222 58.682,-63.085"
             stroke="#ffffff"
             stroke-width="7.56507"
             stroke-miterlimit="10"
             stroke-linecap="round"
             id="path220" />
          <path
             d="m 529.506,247.154 53.233,0.047"
             stroke="#ffffff"
             stroke-width="11.9991"
             stroke-miterlimit="10"
             stroke-linecap="round"
             id="path222" />
          <path
             opacity="0.4"
             d="m 527.308,271.556 110.01,0.098"
             stroke="#ffffff"
             stroke-width="11.9991"
             stroke-miterlimit="10"
             stroke-linecap="round"
             id="path224" />
          <path
             d="m 424.307,416.46 38.814,-17.097 39.693,-27.095 c 10.439,-7.125 32.239,-10.335 40.087,-0.429 7.983,10.076 -0.984,30.008 -10.666,38.463 l -36.683,32.033 -19.075,23.608 z"
             fill="#ffccb3"
             id="path226" />
          <path
             d="m 503.194,382.557 c 0,0 5.24,20.206 18.826,23.702 l 14.41,-12.174 c 1.461,-1.088 2.685,-2.462 3.598,-4.038 0.913,-1.577 1.495,-3.323 1.711,-5.131 0.216,-1.809 0.062,-3.643 -0.454,-5.39 -0.516,-1.747 -1.382,-3.371 -2.546,-4.772 v 0 c -2.033,-2.448 -4.869,-4.094 -8.003,-4.644 -3.134,-0.549 -6.362,0.033 -9.106,1.643 z"
             stroke="#ff967c"
             stroke-width="3"
             stroke-linecap="round"
             id="path228" />
          <path
             d="m 319.38,476.062 c 0,0 -7.522,53.795 57.936,84.598 0,0 -47.022,43.134 -65.151,50.387 -18.128,7.252 -86.241,-66.865 -62.015,-108.933 6.794,-11.797 69.23,-26.052 69.23,-26.052 z"
             fill="#1c85e8"
             id="path230" />
          <path
             d="m 567.401,419.425 c 0,0 -25.513,0.52 -34.394,5.168 l -6.41,-7.475 39.332,0.001 z"
             fill="#fcba9f"
             id="path232" />
          <path
             d="M 1037.16,417.358 H 855.755 c -13.665,0 -23.762,-11.078 -22.552,-24.743 L 857.542,117.742 C 858.752,104.078 870.81,93 884.475,93 h 181.405 c 13.67,0 23.76,11.078 22.55,24.742 l -24.34,274.873 c -1.21,13.665 -13.27,24.743 -26.93,24.743 z"
             fill="#febb94"
             id="path234" />
          <path
             d="m 1011.19,248.209 c 28.73,-27.481 31.62,-71.072 6.47,-97.363 -25.153,-26.291 -68.829,-25.327 -97.554,2.154 -28.724,27.481 -31.62,71.072 -6.467,97.363 25.153,26.292 68.83,25.327 97.551,-2.154 z"
             fill="#ffffff"
             id="path236" />
          <path
             d="m 969.493,202.744 45.537,41.532 c 0,0 10.36,-11.135 13.45,-19.093 z"
             fill="url(#paint4_linear)"
             id="path238"
             style="fill:url(#paint4_linear)" />
          <path
             d="m 972.525,122.963 -6.471,73.077 c -0.144,1.331 0.105,2.675 0.716,3.867 0.611,1.191 1.558,2.177 2.723,2.837 l 61.787,34.398 c 0,0 36.69,-102.359 -58.755,-114.179 z"
             fill="#1c85e8"
             id="path240" />
          <path
             d="m 875.814,320.069 h 75.152"
             stroke="#ffffff"
             stroke-width="12"
             stroke-miterlimit="10"
             stroke-linecap="round"
             id="path242" />
          <path
             d="m 870.313,382.201 h 75.152"
             stroke="#ffffff"
             stroke-width="12"
             stroke-miterlimit="10"
             stroke-linecap="round"
             id="path244" />
          <path
             opacity="0.4"
             d="M 873.095,350.784 H 1028.4"
             stroke="#ffffff"
             stroke-width="12"
             stroke-miterlimit="10"
             stroke-linecap="round"
             id="path246" />
          <path
             d="m 814.065,619.855 c 0,0 24.225,-6.461 37.118,7.422 0,0 23.174,-4.208 32.596,8.684 0,0 20.545,1.19 26.495,9.57 4.948,0.683 9.627,2.664 13.56,5.743 3.933,3.078 6.981,7.144 8.832,11.783 5.618,13.241 0.853,89.792 -4.731,117.223 -1.396,6.861 -0.918,13.971 1.385,20.583 l 14.204,40.819 -98.277,41.083 -23.332,-60.856 c 0,0 -28.401,-45.641 -32.459,-53.756 -4.057,-8.114 2.82,-75.447 -11.031,-117.51 z"
             fill="#ffccb3"
             id="path248" />
          <path
             d="m 834.591,854.971 -2.835,-7.395 c 0,0 50.995,-3.26 97.564,-46.713 l 4.454,12.8 c 0,0 -5.752,26.44 -31.94,38.901 -26.189,12.462 -67.243,2.407 -67.243,2.407 z"
             fill="#fcba9f"
             id="path250" />
          <path
             d="m 834.591,854.971 c 0,0 61.727,5.622 99.183,-41.308 0,0 13.829,7.25 35.064,60.331 6.522,16.304 -102.387,74.351 -119.996,50.222 0,0 -15.202,-32.157 -14.251,-69.245 z"
             fill="#5661ae"
             id="path252" />
          <path
             d="m 784.465,676.035 c 0,0 -2.129,11.296 -12.196,11.297 -6.568,0 -35.037,-8.601 -54.039,-14.581 -5.17,-1.627 -10.716,-1.627 -15.886,0 -5.17,1.627 -9.716,4.803 -13.022,9.097 l -1.155,1.5 c -0.574,0.743 -0.99,1.595 -1.225,2.505 -0.235,0.909 -0.282,1.856 -0.14,2.784 0.142,0.928 0.471,1.818 0.967,2.615 0.496,0.798 1.149,1.486 1.919,2.023 16.087,11.231 59.528,41.713 65.084,47.269 6.838,6.837 44.913,45.169 44.913,45.169 z"
             fill="#ffccb3"
             id="path254" />
          <path
             d="m 782.154,664.717 c 0,0 20.577,27.852 17.531,33.949 -3.046,6.097 -34.953,-12.544 -34.953,-12.544 0,0 25.747,6.623 17.422,-21.405 z"
             fill="#fcba9f"
             id="path256" />
          <path
             d="M 778.425,650.643 743.8,545.495 c -1.187,-3.607 -1.639,-7.416 -1.327,-11.201 0.312,-3.784 1.381,-7.468 3.143,-10.831 1.762,-3.364 4.182,-6.34 7.115,-8.751 2.934,-2.411 6.322,-4.209 9.963,-5.286 2.981,-0.881 6.18,-0.643 8.997,0.671 2.817,1.314 5.056,3.612 6.295,6.462 l 48.575,111.659 z"
             fill="#ffccb3"
             id="path258" />
          <path
             d="m 763.41,605.045 c 0.981,1.612 2.285,3.004 3.829,4.088 1.545,1.085 3.296,1.838 5.146,2.214"
             stroke="#ff967c"
             stroke-width="3"
             stroke-linecap="round"
             id="path260" />
          <path
             d="m 775.868,551.217 c 4.213,-1.867 8.86,-4.476 10.859,-7.521 l -12.893,-30.613 c -0.276,-0.66 -0.689,-1.253 -1.212,-1.741 -0.523,-0.488 -1.143,-0.859 -1.82,-1.089 -0.677,-0.23 -1.395,-0.313 -2.107,-0.244 -0.712,0.069 -1.401,0.288 -2.021,0.643 -4.588,2.648 -10.644,7.426 -10.879,14.286 l 8.72,21.7 c 0.428,1.06 1.065,2.022 1.873,2.83 0.808,0.808 1.771,1.445 2.83,1.872 1.06,0.428 2.195,0.637 3.338,0.616 1.142,-0.021 2.269,-0.273 3.312,-0.739 z"
             stroke="#ff967c"
             stroke-width="3"
             stroke-linecap="round"
             id="path262" />
          <path
             d="m 822.654,619.236 11.937,26.295"
             stroke="#ff967c"
             stroke-width="3"
             stroke-linecap="round"
             id="path264" />
          <path
             d="m 851.66,627.815 c 6.066,8.696 9.317,19.045 9.314,29.649"
             stroke="#ff967c"
             stroke-width="3"
             stroke-linecap="round"
             id="path266" />
          <path
             d="m 884.349,636.453 c 0,0 6.009,13.781 6.505,24.679"
             stroke="#ff967c"
             stroke-width="3"
             stroke-linecap="round"
             id="path268" />
          <path
             d="m 911.115,646.349 c 2.367,5.815 3.285,12.119 2.674,18.368"
             stroke="#ff967c"
             stroke-width="3"
             stroke-linecap="round"
             id="path270" />
          <path
             d="m 715.113,706.131 c 0,0 7.11,-9.03 4.671,-13.559 -2.439,-4.529 -13.288,-10.934 -19.558,-10.237 -2.992,0.451 -5.879,1.434 -8.523,2.904 -0.481,0.251 -0.887,0.624 -1.179,1.082 -0.292,0.457 -0.46,0.982 -0.487,1.524 -0.026,0.542 0.089,1.082 0.335,1.565 0.247,0.484 0.615,0.895 1.069,1.192 z"
             stroke="#ff967c"
             stroke-width="3"
             stroke-linecap="round"
             id="path272" />
          <path
             d="M 592.842,816.234 H 376.227 c -0.894,0.017 -1.781,-0.157 -2.602,-0.512 -0.821,-0.355 -1.556,-0.882 -2.155,-1.545 -0.6,-0.663 -1.05,-1.448 -1.32,-2.3 -0.271,-0.852 -0.355,-1.752 -0.247,-2.64 l 8.506,-88.487 c 0.212,-1.898 1.107,-3.654 2.518,-4.941 1.411,-1.287 3.241,-2.017 5.151,-2.055 h 216.616 c 0.894,-0.018 1.781,0.157 2.601,0.512 0.821,0.354 1.556,0.881 2.156,1.544 0.599,0.664 1.049,1.448 1.32,2.3 0.27,0.853 0.354,1.753 0.247,2.64 l -8.506,88.487 c -0.213,1.898 -1.108,3.654 -2.519,4.941 -1.41,1.287 -3.241,2.018 -5.151,2.056 z"
             fill="#febb94"
             id="path274" />
          <path
             d="M 396.563,736.83 H 530.246"
             stroke="#ef6a77"
             stroke-width="11.6898"
             stroke-miterlimit="10"
             stroke-linecap="round"
             id="path276" />
          <path
             d="M 396.563,736.83 H 489.46"
             stroke="#ffffff"
             stroke-width="11.6898"
             stroke-miterlimit="10"
             stroke-linecap="round"
             id="path278" />
          <path
             d="M 394.563,764.994 H 528.246"
             stroke="#ef6a77"
             stroke-width="11.6898"
             stroke-miterlimit="10"
             stroke-linecap="round"
             id="path280" />
          <path
             d="m 394.563,764.994 h 55.54"
             stroke="#ffffff"
             stroke-width="11.6898"
             stroke-miterlimit="10"
             stroke-linecap="round"
             id="path282" />
          <path
             d="M 390.192,793.158 H 523.875"
             stroke="#ef6a77"
             stroke-width="11.6898"
             stroke-miterlimit="10"
             stroke-linecap="round"
             id="path284" />
          <path
             d="m 390.192,793.158 h 33.965"
             stroke="#ffffff"
             stroke-width="11.6898"
             stroke-miterlimit="10"
             stroke-linecap="round"
             id="path286" />
          <path
             d="m 577.567,744.817 c 4.412,0 7.988,-3.576 7.988,-7.987 0,-4.412 -3.576,-7.988 -7.988,-7.988 -4.411,0 -7.987,3.576 -7.987,7.988 0,4.411 3.576,7.987 7.987,7.987 z"
             fill="#ffffff"
             id="path288" />
          <path
             d="m 574.977,771.749 c 4.412,0 7.988,-3.576 7.988,-7.987 0,-4.412 -3.576,-7.988 -7.988,-7.988 -4.412,0 -7.988,3.576 -7.988,7.988 0,4.411 3.576,7.987 7.988,7.987 z"
             fill="#ffffff"
             id="path290" />
          <path
             d="m 572.086,801.146 c 4.411,0 7.988,-3.577 7.988,-7.988 0,-4.412 -3.577,-7.988 -7.988,-7.988 -4.412,0 -7.988,3.576 -7.988,7.988 0,4.411 3.576,7.988 7.988,7.988 z"
             fill="#ffffff"
             id="path292" />
        </g>
      </g>
    </g>
  </g>
</svg>
